<?xml version="1.0" encoding="utf-8"?>
<!-- Generator: Adobe Illustrator 21.1.0, SVG Export Plug-In . SVG Version: 6.00 Build 0)  -->
<svg version="1.1" id="Layer_1" xmlns="http://www.w3.org/2000/svg" xmlns:xlink="http://www.w3.org/1999/xlink" x="0px" y="0px"
	 viewBox="0 0 715 177" style="enable-background:new 0 0 715 177;" xml:space="preserve">
<style type="text/css">
	.st0{fill:#FFFFFF;}
</style>
<g>
	<path class="st0" d="M566.7,24.3l-0.2,4.7l2,2l7-0.2c3.8,0,6.2,0.4,7,1.2c0.7-0.8,2.2-1.2,4.4-1.2l3.3,0.2c0.4-0.5,0.7-1.2,0.8-2.1
		c0.1-0.9,0.1-2,0.1-3.3c-0.3-0.7-0.4-2.9-0.4-6.7c-0.1-5.8-0.6-10.2-1.2-13.3c-0.7-3.1-2.3-4.6-4.9-4.6h-16.1
		c-1.6,1-2.4,2.4-2.4,4.2l0.2,7.7C566.6,18.2,566.7,22,566.7,24.3z M584.5,24.8h-11.4v-4.5c1.6-0.5,3.5-1.3,5.7-2.4
		c2.2-1.1,3.7-1.8,4.4-2.1c0.1,0.2,0.4,0.4,0.7,0.6c0.3,0.2,0.5,0.5,0.7,0.6V24.8z M572.9,16.4c0-0.7,0.3-1.3,0.9-1.9
		c0.6-0.6,1.2-0.9,1.8-0.9c0,1-0.1,1.9-0.4,2.7c-0.3,0.8-0.7,1.2-1.3,1.2C573.2,16.9,572.9,16.5,572.9,16.4z M582.3,6.4
		c0.9,0,1.6,0.5,2.3,1.6c0.7,1.1,1,2,1,2.8c-0.4,0.7-1.5,1.4-3.3,2.4c-1.8,0.9-3.2,1.5-4.4,1.9v-1.2c0-1.3,0.4-2.9,1.3-4.7
		C580.1,7.4,581.2,6.4,582.3,6.4z M575.1,6.2l2.9,0.2l-5.7,6.4c-0.7-1.5-1.1-2.9-1.1-4.2C571.1,7,572.4,6.2,575.1,6.2z"/>
	<path class="st0" d="M30.2,49.2c0-1.6,2.2-2.7,6.7-3.1c4.5-0.4,6.7-0.6,6.7-0.6s5.2,0,15.6,0c14.1-0.6,24.1-1.4,31.9-2.2V15.7
		L85,15c0-2.1-14-3.2-42-3.2L34.8,12l-3.3-0.2c-1.3,0-2.9,0.3-4.8,1c-1.9,0.7-3.2,1-4,1c-1-0.2-2.3-0.4-3.7-0.6
		c-1.5-0.2-2.6-0.4-3.5-0.4c-1.5,0-2.9,0.3-4.2,1c-0.4-0.5-0.7-0.7-0.9-0.7c-3.2,0-5.3,1-6.3,2.8c-1,1.9-1.4,3.5-1.4,4.8
		c0,0.3,0.1,0.6,0.2,0.9c0.1,0.2,0.3,0.4,0.4,0.4c-0.4,0-1.1,3.2-1.9,9.7c-0.8,6.4-1.4,11-1.7,13.6c0,0.7,0.2,1.7,0.6,3
		c0.4,1.3,0.6,2.4,0.6,3.2c0,1.2-0.3,2.1-0.9,2.7c0.4,0.2,0.7,0.5,0.8,1.1c0.1,0.6,0.1,1.4,0.1,2.4v3.2l-0.9,8.9
		c0,0.8,0.3,8,0.8,21.6c0.5,13.5,0.8,25.1,0.8,34.7c0,0.2,0.4,0.2,1.1,0.2l-0.2,5.9c0,3.3,0.1,7.9,0.4,13.9
		c0.3,6.3,0.4,11.1,0.4,14.6c0,3.1-0.1,5.5-0.2,7.1c-0.1,1.6-0.4,2.7-0.9,3.3c0.1,0.8,0.3,1.9,0.4,3.2c0.1,1.3,0.5,2,1.1,2
		c0.7,0,2.2-0.7,4.4-2c2.2-1.3,4.1-2,5.7-2c2.9,0,6.3,0.5,10.1,1.5c3.2,1,5.9,1.5,7.9,1.5c0.4,0,0.8-0.1,1.2-0.4
		c0.4-0.2,0.6-0.5,0.8-0.6v-15.6c-0.1-1.3-0.2-3.2-0.2-5.7l0.2-12.6c0-3.1-0.4-8.2-1.3-15.1c-1-6.4-1.5-12-1.5-16.6
		c0-1.6,1.3-2.7,4-3.1c2.6-0.4,6.4-0.6,11.2-0.6h2.2c0.7-0.2,1.8-0.4,3.1-0.6c1.3-0.2,2.3-0.5,3.1-0.6l20.9,3.2
		c2.3,0,3.5-3.8,3.5-11.4c0-6.8-0.2-11.6-0.7-14.5c-0.4-2.9-1.4-4.9-2.7-5.9c-1.4-1.1-3.7-1.6-6.9-1.6c-3.8,0-9.5,0.3-17.2,1
		c-6.3,0.8-12.1,1.2-17.4,1.2c-2.8,0-4.2-4-4.2-11.9c0-5.8,0-9.5,0.1-11.1C30.2,51,30.2,49.8,30.2,49.2z M76.3,19.7
		c1.1-1.3,2-2,2.7-2c1.5,0,3,0.3,4.7,1c1.7,0.7,2.5,1.6,2.5,2.7L85,29.6c-1,0-2.5,0.5-4.3,1.5c-1.8,1-2.7,2-2.7,3
		c0.3,0,1.1-0.5,2.4-1.4c1.3-0.9,2.5-1.4,3.5-1.4c1.3,0,2.2,0.9,2.6,2.7c-0.4,0.3-1,0.7-1.6,1c-0.7,0.3-1.2,0.5-1.6,0.5
		c0.4,0.7,1,1,1.8,1v1.7h-9.7c0-1,0.7-1.6,2-2c-0.3,0-0.6-0.2-0.8-0.5c-0.2-0.3-0.3-0.7-0.3-1c0-0.5,0.2-1.2,0.6-2.2
		c0.4-1,0.6-1.6,0.6-2c-4,6.4-8.4,9.7-13.2,9.7c0-0.7,2.4-3,7.1-7.1c4.8-4,7.7-6.2,8.7-6.6c-0.4,0.7-0.7,1.3-0.8,1.9
		c-0.1,0.6-0.1,1.3-0.1,2.1c1-1,2.2-2.4,3.4-4.2c1.2-1.8,1.9-3.3,1.9-4.5c0-0.3-0.1-0.6-0.3-0.9c-0.2-0.2-0.5-0.4-0.8-0.4
		c-0.6,0.8-1.6,1.8-3,3c-1.4,1.2-2.4,2.1-3,3c-0.6,1.2-2.1,2.3-4.6,3.5c-2.3,1.3-4,2.5-4.8,3.5c0-1.2,1.2-3,3.7-5.4
		c2.1-2.3,3.1-3.9,3.1-4.7C74.6,22.3,75.2,21,76.3,19.7z M7.3,19.6c1.2-1.9,3.2-2.8,5.9-2.8c2.8,0,5.9,0.3,9.5,1
		c-1.9,2.6-4.5,5.1-7.8,7.4c-3.3,2.3-6,3.5-8.2,3.5c-0.9,0-1.4-0.3-1.5-1C5.4,24.2,6.1,21.5,7.3,19.6z M7.7,30.6
		c1.4-1.5,2.9-2.2,4.5-2.2l0.9,0.2c-0.6,0.3-1.6,1.6-3,3.8c-1.4,2.2-2.5,3.3-3.4,3.3l-1.5-0.2C5.4,33.7,6.3,32.1,7.7,30.6z M4.9,67
		c-0.1-0.2-0.3-0.2-0.4-0.2v-7.9l3.3-2H4.9c0-0.3,0.3-0.7,0.9-1.1c0.6-0.4,1-0.8,1.1-1.1l-1.8-0.5C5,53.7,5,53.3,4.9,52.8
		c2.1-0.9,5-2.7,6.5-4.3c2.1-2.2,3.3-3.3,3.4-3.3c0.7,0,2.4-1.2,4.9-3.5c2.6-2.3,4.1-4.1,4.5-5.4l0.9,2c0-0.8,0.2-1.5,0.6-2.1
		c0.4-0.6,0.8-1,1.4-1.4c0.6-0.3,1-0.5,1.1-0.5c1.8-0.7,2.6-2,2.6-4c-0.4,0-2.8,1.7-7,5.2l-4.6,3.7l0.7-1.5c0-0.2,0-0.4-0.1-0.7
		c-0.1-0.3-0.1-0.8-0.1-1.5h2l5.3-5.9l-0.9-2c2.6-3.1,4-4.8,4-5c-1.9,0-3.8,1.2-5.8,3.7c-2,2.5-3.9,5.4-5.7,8.9
		c-1.8,3.5-3,5.8-3.6,6.9c-0.9,1.5-2.3,3-4.2,4.5C9,48,6.5,49.9,4.7,51.5c-0.1-0.6-0.1-1.3-0.1-2.1c-0.1-1.8-0.1-3-0.1-3.5
		c0-0.3,0.1-1.4,0.2-3.1c0.1-1.7,0.6-2.6,1.3-2.6v2c1.2,0,2.9-0.9,5.3-2.7c2.3-1.8,3.5-3.1,3.5-4v-1c-1,0-2.3,0.7-3.7,2.1
		c-1.5,1.4-2.6,2.3-3.3,2.6v-1l3.1-3.7c2.5-3,4.1-4.9,4.9-5.7c0.8-0.8,1.9-1.6,3.4-2.2l8.6-9.7h13.9l0.9,0.7
		c-1.3,1.5-2.9,3.1-4.6,4.7c-1,0.8-1.8,1.6-2.4,2.4c-0.6,0.7-0.9,1.6-0.9,2.6c0,0.5,0.1,0.9,0.2,1.2c0,0.7-1.5,3.3-4.5,7.8
		c-3,4.5-5,7.2-6,8.1c-0.9,0.7-2.2,1.4-3.8,2.2c-1.7,0.8-3.3,2-4.7,3.5v-1c-1.3,0.2-2.5,1.4-3.5,3.7c0.4,0,1.2-0.2,2.2-0.7
		c1-0.5,1.8-0.8,2.2-1v1c-5.4,5.1-8.1,9.5-8.1,13.1l0.2,1.5c0.7-0.7,2.3-2.9,4.6-6.7c1.6-2.6,2.9-4.6,3.8-5.9c1-1.3,1.9-2,2.7-2
		l5.3-5.9v7.4c-1.5,0-3.6,1-6.4,2.8c-2.8,1.9-4.7,3.7-5.7,5.3c0.9-0.2,1.9-0.5,3.2-1.1c1.2-0.6,2.5-0.9,3.6-0.9
		c-0.7,0.7-1.5,1.7-2.2,3.1c-0.7,1.4-1.4,2.4-2,2.8c0.9,0,2.3-0.9,4.2-2.6c1.9-1.7,3.7-3.5,5.3-5.3c0.7,2.8,1.1,4.6,1.1,5.4
		c0,0.8-0.4,1.5-1.1,2c-0.7,0.5-1.5,0.9-2.4,1.2c-1.6,0.7-2.8,1.3-3.5,2c-0.7,0.7-1.1,1.7-1.1,3c0.4-0.2,1-0.5,1.8-1.1
		c0.7-0.6,1.3-0.9,1.8-0.9l1.1,0.2c-0.9,0.7-1.8,1.8-2.9,3.5c-1,1.7-1.8,2.8-2.4,3.5l0.7,0.7c-1.8,0.7-3.8,2.7-6.3,6.2
		c-2.4,3.5-3.8,5.4-4.1,5.7c-0.1,0.2-0.5,1.1-1,2.8c-0.5,1.7-1.1,2.8-1.7,3.1c0-4.3,0.4-8.3,1.2-11.9c0.8-3.6,1.3-5.9,1.4-6.7
		l0.9,1.7c0.1-1,0.6-2.5,1.4-4.5c0.8-2,1.2-3.4,1.2-4.2c-0.6,0.5-1.3,1.5-2.2,3c-0.9,1.5-1.9,2.4-3.1,2.7c0-0.7-0.3-1.4-0.8-2.2
		c-0.5-0.8-0.8-1.4-0.8-1.7l0.7-3.7C5.1,67.4,5,67.2,4.9,67z M17.4,125.5v2c-3.8,3.1-7,6.4-9.7,9.7c0-3.1,0.1-5.1,0.3-5.8
		c0.2-0.7,0.8-1.2,1.7-1.4c0.9-0.2,1.7-0.7,2.4-1.5c0-0.3,0.2-0.8,0.7-1.5c0.4-0.7,0.8-1,1.1-1v1.5L17.4,125.5z M16.1,131.4
		c2.2-1.6,4.1-3.4,5.8-5.2c1.7-1.8,2.5-3.7,2.5-5.7c0-1.3-0.4-2-1.1-2c-0.3,0-0.6,0.1-1,0.4c-0.4,0.2-0.6,0.5-0.8,0.6l1.1,1l-1.8,1
		c-0.1,0-0.3-0.2-0.5-0.5c-0.2-0.3-0.4-0.5-0.6-0.5c-1.2,0-2.6,0.9-4.2,2.7c-2.2,2.1-4,3.2-5.3,3.2l-0.9-0.2c2.5-2.1,5.1-5,7.9-8.7
		c0.4-0.5,1.4-1.6,3-3.5c1.5-1.8,2.8-3,3.8-3.5H26c0.1,0,0.5,2.1,1.1,6.4c0.6,4.3,0.9,6.7,0.9,7.2c0,1.3-1.1,2.8-3.2,4.5
		c-2.1,1.7-4.5,3.1-7.3,4.5c-2.7,1.3-4.5,2-5.4,2h-0.9C12.3,134.3,13.9,133.1,16.1,131.4z M15.1,117.4c-1.1,1.4-2.4,2.9-3.8,4.5
		c-1.5,1.6-2.6,2.4-3.3,2.4c-0.4,0-0.8-0.3-1-0.9c-0.2-0.6-0.3-1-0.3-1.4c0-1.5,1.5-3.1,4.6-4.8c3.1-1.7,5-2.6,5.7-2.6
		C16.9,115.1,16.2,116,15.1,117.4z M28.7,168.3H7.8c1.3-1.2,4.5-3.2,9.7-6.2c5.1-3,8.3-4.5,9.5-4.5l1.8,1V168.3z M28.7,153.7
		c0,0.7-0.9,1.4-2.6,2.4c-1.8,0.9-3.6,1.7-5.5,2.4c-3.1,1.5-4.7,2.2-4.8,2.2c-0.6,0.5-1.2,1.1-2,1.7c-0.7,0.7-1.5,1.2-2.2,1.6
		c-0.7,0.4-1.7,0.6-2.9,0.6c0.4-1.2,1.5-2.5,3.1-4c1.6-1.2,2.6-2.5,3.1-4c-1,0.7-2.3,1.5-3.8,2.6c-1.5,1.1-2.9,1.9-4.1,2.4
		c0.6-1.2,0.9-2.4,0.9-3.6c0-1.2,0.2-2.3,0.7-3.1c0.4-0.8,1.4-1.9,2.9-3.2c0.1,0,0.3-0.1,0.5-0.4c0.1-0.1,0.1-0.1,0.1-0.2
		c0.2,0,0.4,0.1,0.6,0.1c0.3,0,1-0.3,2.2-1c1.2-0.7,2.1-1,2.9-1c-0.3,1.3-1.2,2.8-2.6,4.3c-1.5,1.6-2.3,2.4-2.4,2.6
		c0.1,0.2,0.4,0.2,0.7,0.2c1.3,0,3.2-1.4,5.5-4.2c2.3-2.8,3.5-5.2,3.5-7.2c-2.2,0-4.4,0.5-6.7,1.5c-2.2,0.9-3.7,2-4.6,3.3
		c-0.2-0.1-0.5-0.1-0.8-0.1c0-0.3,0.6-1.2,1.9-2.5c1.2-1.3,1.9-2.4,1.9-3.2c-0.6,0.3-1.3,0.7-2.1,1.1c-0.8,0.4-1.5,0.8-2,1.2
		c-0.5,0.4-0.9,1.2-1.2,2.4L7.8,148l-0.2-4.7c0-1.8,0.4-3.2,1.1-4.2l0.9,1c2.6-0.5,5.4-2.1,8.4-4.7c0.9-0.8,1.8-1.5,2.6-2.1
		c0.9-0.6,1.8-0.9,2.9-0.9l0.2,0.7c0,0.8-0.5,1.7-1.4,2.6c-1,0.9-1.9,1.7-3,2.4c-1,0.7-1.9,1.4-2.6,2.1c-0.7,0.7-1.1,1.4-1.1,1.9
		c0,0.3,0.1,0.7,0.4,1c0.1,0,2-1.7,5.5-5.1c3.5-3.4,5.9-5.1,7.3-5.1V153.7z M54,101c-0.3-0.5-0.7-0.9-1.3-1.4
		c-0.6-0.4-1-0.6-1.3-0.6c-0.7,0.2-2.3,0.6-4.7,1.2c-2.4,0.7-4.4,1-5.8,1l-6.8-0.2l-6.2,2c-0.6,0-1-0.2-1.2-0.5
		c-0.2-0.3-0.4-0.5-0.6-0.5l4.2-4c-0.1-0.2-0.2-0.4-0.2-0.7c0-0.8,0.7-1.7,2-2.7c1.3-1,2.6-1.8,3.7-2.5L32,96c0.9,0,1.9-0.5,3.2-1.4
		c1.2-0.9,2.5-1.9,3.8-3.1c2.5-2,4.4-3.4,5.6-4.2c1.2-0.8,2.6-1.2,4.1-1.2c0,1.7-1.3,3.6-4,5.9c-2.6,2.3-4,4.2-4,5.7
		c0,1,0.6,1.5,1.8,1.5c1.9,0,6.9-3,15-8.9c4.4-3.5,7.3-5.4,8.6-5.9c-0.9,1.2-3.1,3.9-6.7,8.2C55.8,96.8,54,99.6,54,101z M72.9,101.4
		c-2.9,0-6.1-0.2-9.6-0.5c-3.4-0.3-5.2-0.7-5.4-1.2l0.2-0.7L72,91.3l0.9,0.7V101.4z M72,82.4c0,5.1-3.7,9.4-11.2,12.9
		c0.7-1,2.4-3.3,4.9-7.1C68.3,84.5,70.4,82.5,72,82.4z M59,79.4l1.3,0.2c1,0,2.4-0.2,4.2-0.6c1.8-0.4,3.1-0.6,4-0.6v1.7
		c-1.5,0-4.8,2.3-9.9,6.9c-2.5,2.3-4,3.5-4.6,3.5c-0.6,0.3-2,1.2-4.3,2.6c-2.3,1.4-3.6,2.1-4.1,2.1c0.1,0,2-2.5,5.5-7.6
		C54.6,82.7,57.3,79.9,59,79.4z M42.4,83.5c2.3-1.6,4.5-2.4,6.7-2.4l1.1,0.2c-0.9,1.7-2.7,3.1-5.5,4.5c-2.8,1.3-4.6,2.7-5.5,4.2
		L39,89.3C39,87,40.1,85.1,42.4,83.5z M39.2,80.4c0,1.2-0.4,2-1.1,2.6c-0.7,0.6-1.8,1.1-3.3,1.6c-1.6,0.5-2.8,1-3.5,1.6
		c-0.7,0.6-1.1,1.4-1.1,2.6l0.2,0.7c0-0.8,0.9-1.4,2.6-1.6c1.8-0.2,2.9-0.5,3.3-0.6v1c-0.4,0.3-1.5,1.1-3.2,2.2
		c-1.7,1.2-2.9,2.3-3.6,3.5l0.7,1.2c-0.7,0.5-1.9,1.1-3.6,1.9c-1.7,0.7-3.6,2.4-5.6,4.8c-2.1,2.3-4.9,5.3-8.5,9
		c-3.6,3.7-5.8,5.6-6.5,5.6c1.3,0,2.7-0.6,4.1-1.9c1.4-1.2,3.1-3,5.2-5.3c1.9-2.1,3.5-3.8,4.7-4.8c1.2-1.1,2.4-1.6,3.4-1.6
		c1.3,0,2.2,0.7,2.6,2c0,1.2-4.5,4.5-13.4,9.9c-4,2.6-5.9,3.9-5.7,3.7c-0.3-0.2-0.7-0.3-1.1-0.5c-0.4-0.2-0.7-0.4-0.7-0.7
		c0-0.5,0.1-1.3,0.4-2.5c0.3-1.2,0.4-2.1,0.4-2.7c0-1.5-0.1-3.5-0.4-6.2c-0.3-3-0.4-5.2-0.4-6.7c0-2.1,0.5-3.6,1.4-4.3
		c1-0.7,2.2-1.4,3.6-2c1.5-0.6,2.2-1.3,2.2-2.1l-0.2-1.5l-1.8,0.7c1.2-2.6,3.3-5.5,6.4-8.7c2.1-2.3,3.7-4.3,4.8-5.9
		c0-1.2,0.5-2.4,1.5-3.8c1-1.4,2-2.4,2.9-2.8l-0.2,1.7c0,1,0.2,2.1,0.6,3.2c0.4,1.2,0.6,2.3,0.6,3.5c0,1.2-2.3,3.1-6.8,5.9
		c-0.4,0.3-1.6,1.2-3.4,2.5c-1.8,1.3-2.7,2.3-2.7,3c0,0.5,0.1,0.9,0.3,1.2c0.2,0.3,0.4,0.5,0.6,0.5c0.1-0.2,0.6-0.6,1.3-1.2
		c0.7-0.7,3.4-2.6,8.1-5.7h0.9c-1.2,1.7-3.7,4.1-7.5,7.4c-3.7,3.1-6.3,5.8-8,8.1c-1.7,2.2-2.5,4.9-2.5,8.1h1.5
		c0.1-0.5,1.6-1.6,4.4-3.5c3.5-2,5.3-3.5,5.3-4.5c0-0.7-0.1-1-0.2-1l-6.8,4l-0.9-1c1-0.2,1.8-0.7,2.2-1.7c0.4-1,0.9-1.7,1.3-2.2
		c3.8-5,7.7-8.9,11.8-11.9C29.7,82.1,34.2,80.6,39.2,80.4z M29.5,41.3c0.9-0.3,2.5-1.6,4.8-4c2.2-2.1,3.7-3.2,4.6-3.2
		c0.6,0,1.1-0.5,1.5-1.6c0.4-1.1,0.8-1.7,1.1-1.9c-0.9,0-2.5,1-4.8,3c-2.3,1.8-3.6,2.7-3.7,2.7l-0.2-0.7c0-0.5,1.2-2.3,3.7-5.4
		c3.2-4,4.9-6.4,5.1-7.4c0.6-2.5,1.9-4,3.8-4.7c2-0.7,4.8-1,8.5-1c1,0,1.6,0.2,1.8,0.7c-0.6,0.5-1.6,1.4-3.2,2.6
		c-1.5,1.2-2.5,2.4-3,3.6c2.5,0,4.5-0.4,5.9-1.1c1.5-0.7,2.3-2.4,2.6-5.1H72l0.9,1c-1.2,1-2.1,2.3-2.7,3.8c-0.7,1.6-1.1,2.5-1.2,2.8
		c-1,3.3-2.3,5.6-4,6.9c-1.3,1-2.1,2.7-2.4,5.2c-0.3,2.5-0.6,3.7-0.9,3.7l-7-1c0.9,0,4.5-3.5,10.8-10.7c1.2,0,1.8-1.6,1.8-4.7
		c-0.7,0.7-2.7,3-5.9,7.1C58,36,55.6,38,54,38v-1.7c-0.7,0.2-1.8,1-3.1,2.4c-1.3,1.4-2.1,2.3-2.4,2.6h-8.6v-1h1.3c0-0.3,0-0.5,0-0.8
		l2.2-0.2l5.1-5.7l0.7,0.2c0.5,0,1-0.2,1.6-0.4c2.5-0.4,6-0.3,6.6-1.4c0.7-1.4,1.1-3.3,1.1-5.6c1.2,0,2-0.2,2.5-0.7
		c0.5-0.5,1-1.3,1.5-2.5c0.5-1.2,1.1-2,1.9-2.5c-0.7,0-1.7,0.5-2.9,1.6c-1.2,1.1-2,1.6-2.4,1.6c-0.9,1.5-1.9,3.4-3.2,5.8
		c-0.6,1.1-1.9,1.8-3.3,2.3c0.7-0.6,1.3-1.4,2.1-2.4c-0.4-0.7-0.8-1-1.1-1c-0.3,0-0.9,0.5-1.8,1.5c-0.9,1-1.6,1.5-2.2,1.5l-3.5,2
		v-1.2c0-0.3,0.8-1.3,2.3-3c1.5-1.6,2.7-2.6,3.6-2.7c-0.6,0-1.4,0.2-2.5,0.5c-1.1,0.3-1.9,0.5-2.5,0.5c0-0.2,0.1-0.6,0.4-1.2
		c0.3-0.7,0.4-1.2,0.4-1.7c-0.6,0.5-1.1,1.3-1.5,2.5c-0.4,1.2-0.9,2-1.3,2.6c-0.4,0.6-1,0.9-1.5,0.9l1.1,1l-1.1,0.7
		c-0.6,0.7-1.4,0.9-1.8,2c-1.2,0.3-2.4,4-2.4,4c-1,1.3-2,2.3-2.9,3c-0.9,0.7-1.8,1-2.9,1C31.9,42.2,30.6,41.9,29.5,41.3z"/>
	<path class="st0" d="M239.2,66.1c0.1-0.7,0.2-1.6,0.2-3c0-14.2-2.7-23.5-8.1-27.9c-5.4-4.4-8.2-6.6-8.4-6.8h-2
		c0-1.3-0.8-2.6-2.3-3.8c-1.5-1.2-3.7-2.4-6.5-3.6c-2.8-1.2-4.8-2.1-5.9-2.7c0,0.2-0.2,0.4-0.6,0.6c-0.4,0.2-0.8,0.4-1.2,0.4
		c-4.8-5.4-12.9-8.2-24.2-8.2c-1.8,0-3.7,0.4-5.9,1.1c-2.2,0.7-3.7,1.1-4.6,1.1c-1,0-2.7-0.3-5.1-1c0,0.8-1.1,1.5-3.3,2.1
		c-2.2,0.6-5.2,1.1-9,1.6l-5.1,1l-4.6,2c-3.1,1.5-4.7,2.2-4.8,2.2l0.9,0.7c-0.6,0.3-2,0.9-4.2,1.7c-2.6,1-4.7,2-6.3,3
		c-1.5,1-2.7,2.4-3.6,4.2c-3.4,2-6.2,5-8.4,9c-2.2,4-4.7,9.5-7.5,16.2c-1.3,3.5-2.1,5.4-2.4,5.9c-1,2.3-2.3,7.5-3.7,15.6
		c-1.5,8.1-2.2,13.1-2.2,15.1c0,3.6,0.6,8.5,1.9,14.6c1.2,6.1,2.6,11.7,4.1,16.7c1.5,5,2.4,7.6,2.9,7.6h0.9c0,2,1.2,4.7,3.6,8.3
		c2.4,3.6,4.1,5.3,5,5.3c0.4,0.5,0.8,1.2,1.2,2c0.4,0.8,0.8,1.5,1.4,2c0.4,0.3,1.6,1.6,3.5,3.7c3.1,3.8,5.1,5.7,5.9,5.7v1.2
		c0,1.5,1.5,3.2,4.6,5.1c3.1,1.9,6.2,3.4,9.2,4.6c4.1,2.3,7.7,3.9,10.7,4.7c3,0.8,6.4,1.2,10.2,1.2c0.3,0,0.7-0.1,1.1-0.4
		c0.4-0.2,1-0.4,1.5-0.4c0.3,0,0.7,0.3,1.1,1c0.4,0.7,1.1,1,2,1c1.6,0,3-0.2,4.2-0.6c1.2-0.4,1.9-0.6,2.2-0.6
		c11.1,0,23.6-3.2,37.4-9.7c0.3-0.7,0.8-1.3,1.6-2c0.8-0.7,1.4-1,1.9-1c0.4-0.7,1.3-1.8,2.5-3.5c1.2-1.6,2.6-3.3,4.1-4.8
		c1.5-1.6,2.7-2.4,3.7-2.4c4.8-5.4,8.5-12.6,11.1-21.6c2.6-8.9,4.1-20.7,4.5-35.4L239.2,66.1z M202,21.3c-1.6,0-3.2,0.3-4.6,0.9
		c-1.5,0.6-2.3,1.6-2.4,3.1c0-0.3-0.2-0.6-0.6-0.9c-0.4-0.2-0.7-0.4-1-0.4l-4.4,2c0.1-0.2,0.2-0.7,0.2-1.7c0-2.1-0.6-3.2-1.8-3.2
		c-0.6,0-1,0.1-1.3,0.2L172.5,28l-0.9-0.2c-1.5,0-2.9,1.1-4.2,3.2l-0.2-1c0.4-2.6,0.7-4,0.9-4h0.9v2c1-1.5,2.2-2.6,3.6-3.3
		c1.4-0.7,3.2-1.5,5.4-2.4c1.6-0.5,3.2-1.1,4.8-1.9c1.6-0.7,3.1-1.7,4.4-2.8C193,17.6,197.9,18.8,202,21.3z M164.6,24l9.7-7.7h8.6
		c0,1-2.6,2.4-7.7,4.2c-5.1,1.7-8.7,3.2-10.6,4.7V24z M165.5,30l-0.9-0.2c-0.4,0-0.8,0.2-1.2,0.7c-0.4,0.5-0.8,0.7-1.4,0.7
		c0-1.5,0.6-2.2,1.8-2.2C164.6,29,165.2,29.3,165.5,30z M132.5,30.5c2.6-3,6.3-5.4,11.1-7.4c4.8-2,9.2-3,13.3-3
		c-0.9,1.2-4.9,3.3-12,6.6c-7.1,3.2-11.3,4.8-12.4,4.8V30.5z M128.9,31.2c0.4-0.2,0.7-0.2,1-0.2c0.1,0,0.3,0.1,0.6,0.2
		c0.2,0.2,0.3,0.4,0.3,0.7h-2.6C128.2,31.6,128.5,31.4,128.9,31.2z M108.8,114.5c-0.5-1.8-0.8-2.7-0.8-2.7s0-0.8,0-2.5
		c0-1.3,0.4-2.3,1.1-3c0.7-0.7,1.7-1.3,3-2c1.2-0.7,1.9-1.6,2.1-3l-1.1-0.2c-1,0-2.2,0.8-3.5,2.4c-1.3,1.6-2.1,2.8-2.2,3.8
		c-0.4-1.2-0.8-2.6-1.1-4.3c-0.3-1.7-0.8-3.3-1.5-4.6c-0.3,0-0.4-0.2-0.4-0.5c1,0,1.7-0.8,2-2.5l9.2-2.7c1,0,2.3-0.2,3.9-0.5
		c1.8-0.3,2.7-0.8,2.7-1.5l-11.7,2c2.6-3,4-4.6,4-5c-0.3-0.5-0.5-0.7-0.7-0.7c-0.4,0-3.3,2.6-8.6,7.9c0-9.1,2-13.6,5.9-13.6
		c0-1.8,0.3-2.9,0.8-3.3c0.5-0.4,1.2-0.7,2.1-1c0.9-0.2,1.3-0.9,1.3-2.1l-0.2-0.7c-1,0.2-2.3,0.9-4,2.1c-1.6,1.2-2.9,1.9-4,1.9
		c0-3,0.8-6.4,2.4-10.4c1.6-4,3.4-7.5,5.3-10.5c1.9-3.1,3.2-4.6,3.7-4.6c1,0,1.5-0.7,1.5-2h-2.6c0-3,0.6-5.2,1.8-6.8
		c1.2-1.6,2.9-3.2,5.3-4.8c0.9-0.5,1.6-1.1,2.3-1.7c0.7-0.7,1-1.3,1-2c3.7,0,9.1-1.4,16.3-4.3c7.2-2.9,13.4-6.1,18.7-9.5
		c-1.2,1.8-2.9,3.6-5.1,5.4c-2.2,1.8-3.4,3.2-3.5,4.2l-1.1-1c-1.3,2-3.3,4.1-6,6.3c-2.7,2.2-4.7,3.3-6,3.3c1.5,0.7,2.4,1.3,2.9,2
		c-1.8,0.5-3.8,1.9-6.2,4.2v-1.2l-13.2,5c-0.6,0-1.1,0.2-1.5,0.5c-0.4,0.3-0.7,0.7-0.9,1c1.3,0,2.2,0,2.5,0.1
		c0.4,0.1,0.6,0.1,0.8,0.1c0.9,0,3-0.7,6.4-2l12.8-4.7c1.2-1.5,5.2-3.8,12.2-6.9c7-3.1,11.3-4.7,12.9-4.7l-2.4,2.7
		c-0.9,0-2,0.2-3.3,0.6c-1.3,0.4-2,1-2,1.9c0,0.3,0.1,0.7,0.3,1c0.2,0.3,0.4,0.5,0.6,0.5c2.2-0.3,4.7-1.1,7.4-2.4
		c2.7-1.2,4.9-2.4,6.7-3.6c-0.6-0.3-1-1-1.3-2.1c-0.3-1.1-0.4-1.8-0.4-2.1c0-1.3,1.2-2,3.5-2c0,0.7-0.1,1.3-0.3,2
		c-0.2,0.7-0.3,1.3-0.3,2c1.6,0,4-0.7,7.3-2c0.6-0.2,1.6-0.5,3.1-1c1.5-0.5,2.8-0.7,4-0.7l0.9,0.2c-0.3,0.7-1.4,1.7-3.4,3
		c-2,1.3-3.4,2.1-4.3,2.5v1.2c0.1,0.2,0.5,0.2,1.1,0.2c0.9,0,1.9-0.6,3.2-1.7c1.2-1.2,2.1-1.9,2.5-2.2c0.3-0.3,0.9-0.9,1.8-1.7
		c0.9-0.8,1.5-1.2,2-1.2c0.4,0,0.7,0.3,0.9,1c0.4-0.3,0.8-0.9,1.1-1.7c0.3-0.8,0.4-1.5,0.4-2l0.9,1.7c1.3-1.2,2.8-2.1,4.4-3v1.2
		c0.7-0.8,1.3-1.9,1.8-3.2c0.7,1.5,1.6,2.5,2.5,3c1,0.5,2.4,1,4.3,1.5c2.5,0.7,4.3,1.5,5.3,2.5c0.3,0.3,1.6,1.5,4,3.6
		c0.1,0.1,0.2,0.1,0.2,0.2c-1.2,0.4-2.4,0.9-3.1,0.9c-3.4,0-6.1,1.3-8.1,4c1.3-0.5,2.1-0.7,2.2-0.7c-0.1,0,0.6,0.2,2.2,0.7l-3.5,2
		l1.8,1c0.9,0,2.3-0.8,4.2-2.4c1.3-1.1,3.8-3.1,5.4-4.5c1.7,1.7,2.8,3.4,3.4,5.1l-5.3,2.7v2.2c0.6-0.7,1.4-1.2,2.4-1.5
		c1-0.3,2.3-0.6,3.7-0.7l-2.6,4.2c-0.4-0.2-1-0.2-1.5-0.2c-0.4,0-0.7,0.2-0.9,0.5c-0.1,0.3-0.2,0.7-0.2,1.2v1c0.9,0,2.2-0.7,4.1-2.1
		c1.8-1.4,3.1-2.6,3.8-3.6c-0.1,0.5-0.2,1.2-0.2,2c0,3,0.7,6,2.2,9.2c1.5,3.1,2.3,5,2.4,5.4c-0.4,1.2-3.6,2.6-9.5,4.5
		c-5.9,1.8-9.5,2.7-11,2.7c0-1,0.6-1.9,1.9-2.6c1.2-0.7,1.9-1.6,2.1-2.6l0.9,1c0.3-1.3,0.9-2,1.8-2l2.4-2c1.6,0,3.1-0.9,4.5-2.6
		c1.4-1.7,2.2-2.8,2.5-3.1c-0.1-0.3-0.3-0.7-0.4-1.2c-0.1-0.5-0.4-0.7-0.9-0.7c-0.7,0-1.4,0.2-2.1,0.6c-0.7,0.4-1.4,1.1-2.1,2
		c-0.7,0.9-1.2,1.5-1.5,1.9c-1.5,2-2.8,3.6-4.1,4.7c-1.2,1.2-2.7,2-4.5,2.5c-0.6,0.5-1,1-1.3,1.4c-0.3,0.4-0.7,0.6-1.3,0.6
		c-0.7,0-1.4-0.4-1.9-1.2c-0.5-0.8-0.8-2.1-0.8-3.7l5.3-3c0-0.5-0.3-0.7-0.9-0.7c-0.4,0.5-1.2,1-2.3,1.4c-1.1,0.4-1.9,0.7-2.3,0.9
		c0-1,0.6-1.9,1.8-2.7c1.2-0.8,1.8-1.6,1.8-2.5c-0.9,0-1.9,0.5-3.2,1.5c-1.2,1-2.2,1.5-2.7,1.5c-0.6-0.3-1.3-0.9-2.2-1.6
		c-0.9-0.7-1.5-1.4-2-1.9c0-0.5,0.4-1.5,1.2-3c0.8-1.5,1.3-2.6,1.4-3.2c-1,0-1.9,0.3-2.7,1c-0.8,0.7-1.4,1.6-1.7,2.7
		c-0.4-0.8-1.5-1.6-3.3-2.4c-1.8-0.7-3.3-1.2-4.6-1.4c0.6-0.5,1.2-0.8,1.9-1c0.7-0.2,1.1-0.5,1.4-0.9c0.3-0.4,0.7-1.2,1.3-2.4
		c0,0.3,0.1,0.6,0.4,0.9c0.3,0.2,0.5,0.4,0.7,0.4c0.9,0,3-1.6,6.4-4.7c1.9-1.6,3.8-3.2,5.6-4.6c1.8-1.4,3.2-2.1,4.1-2.1V29h-10.3
		v2.7l0.7,0.2l4.4-1c0,1.7-1,3.3-2.9,4.8c-1.9,1.6-3.7,2.4-5.3,2.4c-1,0-1.6,0.4-1.8,1.2c-0.1,0.8-0.3,1.2-0.4,1.2l-0.9-1.7
		c-1,0.2-2.3,1.2-3.7,3.2c-1.9,2.1-3.3,3.2-4.2,3.2v-1.5l-5.9-3.2v-1c1.5-0.5,3.7-1.4,6.6-2.7c0.4-0.2,1.9-0.8,4.5-2
		c2.6-1.2,4.9-1.7,7.1-1.7v-2c-2.8,0-6.5,1.3-11.2,4c-4.7,2.6-8.5,4-11.4,4v-1.2c2.9,0,4.4-1.4,4.4-4.2c-0.6,0.3-2.1,1.1-4.6,2.2
		c-2.5,1.2-3.8,2.4-4,3.7l-5.7,1.2c-6,1.2-11,2.5-14.8,4.1c-3.9,1.6-7.2,4.1-10,7.6c0-1.2-0.1-1.9-0.4-2.4c-0.3-0.4-0.9-0.6-1.8-0.6
		c-1.6,0.2-4,0.5-7,0.9c-3.1,0.4-4.6,0.8-4.6,1.1v1c1.3-0.3,3.2-0.6,5.5-0.7c2.3-0.2,4-0.2,4.8-0.2c-0.1,0.3-0.9,0.8-2.3,1.5
		c-1.4,0.7-2.5,1.2-3.4,1.7c-5.6,2.5-20.7,9.1-21.6,10.3c2.3,0,17.2-5.8,20.7-7.8c1.5-0.8,2.9-1.5,4.3-2.1c1.4-0.6,2.7-0.9,4.1-0.9
		c-0.4,1.5-1.3,3.5-2.6,6.1c-1.3,2.6-2.6,3.8-3.7,3.8c-0.4,0-0.9-0.2-1.3-0.5c-0.4-0.3-0.9-0.5-1.3-0.5l-9.9,3
		c0,0.2,0.1,0.4,0.2,0.6c0.1,0.2,0.3,0.4,0.4,0.4c0.4,0,1.1-0.2,2-0.5c0.9-0.3,2.9-0.5,5.9-0.5l-12.1,5.9c-0.4,0.2-0.9,0.7-1.4,1.5
		c-0.5,0.8-0.9,1.7-1.2,2.5c0.7-1.2,1.9-2.1,3.4-2.7c1.5-0.7,3.4-1.2,5.5-1.7c2.1-0.5,3.8-1,4.9-1.5c0.6-0.2,1.4-0.9,2.3-2.1
		c1-1.2,1.6-1.9,2.1-1.9l-4.4,9.9c-0.3,0.7-1.2,1-2.9,1.1c-1.6,0.1-2.7,0.3-3.4,0.6c-0.7,0.3-1,1.1-1,2.2c-0.1,0.3-0.5,1.1-1.2,2.4
		c-0.7,1.2-1,2.4-1,3.3c0.6-1.3,1.6-2.3,3.1-3c1.5-0.7,3-1,4.6-1c0,0.3-0.1,1.3-0.3,2.8c-0.2,1.6-0.7,2.6-1.4,3.1
		c-1.3,0.8-3.2,2.4-5.7,4.6c-2.5,2.2-4.3,4-5.3,5.3c0,0.2,0.2,0.4,0.7,0.7c0.6-0.7,1.8-1,3.5-1l6.8-4.7c0,2-0.4,4.3-1.1,6.8
		c-0.7,2.6-1.9,3.8-3.5,3.8v-2.5c-0.1,0-0.3-0.1-0.3-0.2c-0.1-0.2-0.2-0.2-0.3-0.2l0.2,1c0,1.2-0.7,2.8-2.1,4.8
		c-1.4,2.1-3.2,4.3-5.5,6.7c-2.3,2.4-3.6,3.8-4.1,4.3C110.2,117.2,109.4,116.3,108.8,114.5z M156,33.7c-4.5,3.8-7,5.7-7.5,5.7
		c-0.4,0-0.7-0.2-0.7-0.5c0-0.8,0.7-1.9,2.1-3.2c1.4-1.3,3.3-2.2,5.8-2.7L156,33.7z M206.2,123.9c-4.7,16.3-17.2,24.5-37.6,24.5
		c-4.4,0-9.8-1.2-16.3-3.6c-6.5-2.4-10.3-5.5-11.7-9.3c-4.8-13.7-7.3-27.3-7.3-40.9c0-1.3,0.4-3.3,1.3-5.9c0.9-2.3,1.3-4,1.3-5
		c0-0.2-0.1-0.4-0.3-0.6c-0.2-0.2-0.4-0.4-0.6-0.4c2.6-7.9,5.7-14.7,9.1-20.2c3.4-5.5,5.8-8.9,7.1-10c6.3-4,14.4-5.9,24.2-5.9
		c5,0,10.1,1.2,15.4,3.7c5.3,2.5,9.6,5.9,13.1,10.2c3.4,4.3,5.2,9.2,5.2,14.6c0,1.5,0.2,4,0.7,7.4c0.6,2.3,0.9,5,0.9,8.2
		c0,1.3-0.2,3.7-0.6,7.2c-0.4,3.5-0.6,6.6-0.6,9.4c-1.3,1.7-2.1,5-2.4,10.2C206.4,122.1,206,124.2,206.2,123.9z M164.6,153.1
		c-3.7,3.3-6.2,5-7.7,5c-0.4,0.2-1.1,0.7-1.9,1.6c-0.8,0.9-1.6,1.4-2.5,1.4c-0.3,0-0.7-0.3-1.2-1c-0.5-0.7-1-1-1.4-1
		c2.6-1.3,4.5-2.5,5.5-3.5c1.3-1,2.5-1.6,3.6-2C160.1,153.3,162,153.1,164.6,153.1z M128.1,104.3l-0.7,7.7c-0.1,1-2,2-5.5,3.1
		c-3.5,1.1-6.1,1.8-7.7,2.1c0-0.7,0.5-1.6,1.4-3c1-1.3,1.9-2.1,3-2.2C122.7,106.9,125.9,104.3,128.1,104.3z M113.1,125.1
		c-0.4-0.2-1-0.5-1.5-1c-0.6-0.5-0.9-0.9-0.9-1.2c0-1.3,1.7-2.8,5.2-4.5c3.4-1.6,6.3-2.5,8.7-2.5c-0.3,0.5-1.2,1.3-2.9,2.5
		c-1.6,1.2-2.4,2.3-2.4,3.5l0.2,1c4-3.3,6.5-5,7.7-5c0.1,0.2,0.3,0.5,0.6,0.9c0.2,0.4,0.3,0.8,0.3,1.1c-1.9,1.7-3.8,2.8-5.8,3.5
		c-2,0.7-3.2,1.2-3.6,1.5l-0.9-2C116.4,124.4,114.9,125.1,113.1,125.1z M118.4,136.7c-1,0-2-0.9-2.9-2.6c-0.9-1.7-1.3-3.2-1.3-4.3
		c0-0.8,1.5-1.9,4.5-3.3c3-1.4,5.3-2.3,6.9-2.6c0,1.2-1,2.9-3.1,5.2C119.8,131.9,118.4,134.4,118.4,136.7z M121.7,141.7
		c-0.3,0-0.7-0.4-1.2-1.2c-0.5-0.8-0.9-1.6-1.2-2.5c0-0.3,0.5-0.7,1.4-1.2c1-0.5,1.4-1.1,1.4-1.7c0-0.2-0.3-0.6-0.9-1.2
		c1-1.8,2.5-3.6,4.4-5.4c1.9-1.8,3.3-2.7,4.2-2.7c0.9,0,1.5,0.3,1.8,1c0.3,0.7,0.6,1.7,0.9,3.2c-0.7,1.2-2.3,2.1-4.6,2.7
		c-2.8,0.7-4.5,2-5.1,4c1.3-1,3-1.9,5.1-2.8c2.1-0.9,3.7-1.4,4.8-1.4c0,1.5-1.5,3.4-4.4,5.8C125.4,140.5,123.2,141.7,121.7,141.7z
		 M133.8,155.3c-0.9,0-1.6-0.4-2.3-1.1c-0.7-0.7-1-1.5-1-2.4l0.2-1.7c0,0.2,0.1,0.4,0.3,0.6c0.2,0.2,0.6,0.4,1,0.4
		c0.7,0,1.5-0.2,2.3-0.5c0.8-0.3,1.4-0.7,1.7-1.2l-1.5,0.2c-3.4,0-5.9-0.4-7.5-1.1c-1.6-0.7-2.4-1.5-2.4-2.4l0.7-0.7l1.1,0.2v-2.2
		c-0.1,0.2-0.4,0.3-0.8,0.5c-0.4,0.2-0.7,0.2-1,0.2c-0.6,0-0.9-0.8-0.9-2.5c1,0,2.8-0.9,5.3-2.6c2.5-1.7,4.5-3.3,6.2-4.6
		c0.3,0.5,0.6,1.1,1,1.9c0.4,0.7,0.6,1.4,0.8,2.1c0,0.3-0.3,0.9-1,1.7c-0.7,0.8-1.2,1.2-1.6,1.2l0.9,1c-1.2,0.3-2.3,1.3-3.5,3
		l0.7,0.2c0.6,0,1.6-0.5,3-1.5c1.4-1,2.5-1.6,3.4-1.7c0.7,0.7,2,1,3.7,1c-1.3,1.2-2,1.9-2,2.2c0,0.3,0.7,0.5,2.1,0.6
		c1.4,0.1,2.1,0.5,2.1,1.1c0,1.8-1.4,2.7-4.2,2.7l1.8-2c-1.8,0-3,0.5-3.6,1.5c-0.7,1-1.3,2.2-1.9,3.6
		C136.1,154.6,135.1,155.3,133.8,155.3z M238.8,116.3c-0.7,2.4-2.2,3.6-4.7,3.6c-0.1,0-0.3-0.1-0.6-0.4c-0.2-0.2-0.3-0.5-0.3-0.6
		c-0.1,0.3-1,0.7-2.4,1c-1.5,0.3-2.2,0.7-2.2,1.2c0,0.3,0.1,0.6,0.3,0.9c0.2,0.2,0.4,0.4,0.6,0.4h2.9c-1.6,0.8-2.5,1.9-2.6,3.2
		c2.9-1.2,5.6-2.7,7.9-4.7c-0.4,2.6-1.1,4.4-2.1,5.2c-1,0.8-2.5,1.5-4.5,2c-2.3,0.7-3.5,1-3.5,1s-0.7,0.5-2,1.5
		c0-1.2,0.5-2.4,1.4-3.8c1-1.4,1.6-2.4,1.9-2.8c-0.7,0.5-2.1,1.4-4.1,2.8c-2,1.4-3,2.3-3,2.6c0.1,0,0.3,0.2,0.3,0.6
		c0.1,0.4,0.3,0.6,0.6,0.6l-7.7,4v1c1.9,0,4.5-0.7,7.7-2c3.2-1.3,5.7-2,7.5-2l1.3,0.2c-0.4,0.8-1.8,1.7-4.2,2.7
		c-1.5,0.7-2.5,1.2-3.2,1.7c-0.4,0.3-0.7,0.7-0.9,1.2c-2.2,1.2-4.1,2.3-4.9,2.5c-0.8,0.2-1.4,0.4-2,0.6l0,0l0,0
		c-0.8,0.3-1.5,0.6-1.9,0.9c-0.3,0.2-0.5,0.4-0.6,0.6l-2.3,1.3c-1,0-2.2,0.2-3.4,0.7c-1.2,0.5-2.1,1.2-2.5,2l0.7,0.2
		c1.4,0,5.5-0.9,7-2.3c0,0,0,0.1,0,0.1c1,0,2.8-0.7,5.3-2.2c1-0.6,3.4-2.2,5.8-3.8c1.2-0.2,2.5-0.8,3.9-1.6c1.9-1.2,3.6-2.5,5.1-4
		c0.6,0.3,0.9,1,0.9,2c0,1.8-0.8,4.2-2.3,7.2c-1.5,3-3.1,4.5-4.7,4.5c-2.9,0-7,0.8-12.3,2.5c-4.1,1-6.4,1.5-6.8,1.5l-13.9,5
		c-1.3,1.5-2,2.4-2,2.7c1.2-0.5,3.7-1.4,7.7-2.6c4-1.2,11-3.6,21.1-7.1v1.2l-13,7.7v2c0.1-0.2,1.9-1.2,5.3-3c3.8-2,6.8-3.7,8.9-5.1
		c2.1-1.4,3.3-2.6,3.4-3.6l0.7,0.7c-1,1.2-4,3.8-9,7.9c-2.3,1.8-4.5,3.6-6.4,5.4c-1.9,1.8-3.1,3.3-3.5,4.5l-1.1-1.2
		c-0.3,1.2-1.2,1.8-2.9,1.9c-1.6,0.1-2.7,0.2-3.2,0.5c-0.5,0.2-0.8,0.8-0.8,1.6c-0.3,0-0.5-0.2-0.7-0.5c-0.1-0.3-0.4-0.5-0.7-0.5
		c-0.7,0.2-2.4,0.5-4.9,1.1c-2.6,0.6-4.3,0.9-5.2,0.9c0.4-0.3,1.3-1,2.5-2.1c1.2-1.1,1.9-1.9,1.9-2.6c0.3,0.2,0.6,0.5,0.9,1
		c0.7-0.3,2.1-0.8,4.2-1.4c2.1-0.6,4.1-1.4,6-2.4c2-1,3-2.2,3-3.7c-0.1-0.2-0.4-0.2-0.9-0.2c-2.2,0-7.7,2.5-16.5,7.4l-4.4,2.2
		c-0.1,0-0.4,0.4-0.7,1.1c-0.3,0.7-0.6,1.1-0.9,1.1c-0.3-0.3-0.8-0.5-1.5-0.5c-1,0-3.2,0.3-6.4,1c-4.7,0.8-7.5,1.2-8.4,1.2
		c-4.4,0-7.7-0.4-9.9-1.2c-0.1-0.1-0.1-0.3-0.2-0.4c2.2-0.3,11.4-2.8,13.4-3.7c0.6-0.3,1.1-0.6,1.6-0.9c1.2,0,3.5-0.7,7-2.1
		c3.5-1.4,5.3-2.5,5.3-3.3c-0.3,0-0.8,0.1-1.7,0.2c-0.3,0.1,1.3-1.2,3.5-2.9c0.8-0.4,1.7-0.9,2.7-1.7c2.1-1.6,4-3.2,5.6-4.8l-0.1,0
		c0.1-0.1,0.2-0.2,0.1-0.2c-0.1,0-0.3,0.1-0.6,0.2l-1.2-0.2c-0.9,0-2.6,1-5.2,2.8c-0.5,0.3-0.9,0.7-1.3,1c-0.2,0-0.3,0-0.3,0
		c-0.6,0.5-8.1,6.1-8.9,6.6c-0.7,0.5-1.5,1-2.4,1.5c0-0.7,0.3-1.2,0.9-1.7c0.6-0.5,0.9-1.1,0.9-1.7c0-0.8-0.1-1.3-0.2-1.5
		c-2.3,1.2-3.6,3.2-4,6c-0.7,0.4-1.4,0.8-2.1,1.3c-1.2,0.8-10.2,3.5-13.4,4.2c-0.5-0.9-1-1.3-1.5-1.3c-0.7,0-1.2,0.6-1.5,1.7l-8.6-5
		h-1.3c-0.1-1.6-0.7-2.8-1.5-3.6c-0.9-0.7-1.9-1.4-3.1-1.9c-1.2-0.5-1.8-1-1.8-1.5c0-1.6,0.6-2.5,1.8-2.5c1.3,0,2.8-1.1,4.4-3.2
		c1.5-2,2.8-3,4-3c1.9,0,3.8,0.3,5.8,0.9c2,0.6,3.3,1,4.1,1.1c-0.1,0.2-0.4,0.3-0.9,0.5c-0.4,0.2-0.7,0.4-0.9,0.7
		c-1.2,0.8-3.1,2.7-5.7,5.6c-2.6,2.9-4,4.5-4,4.8c0,0.2,0.1,0.4,0.3,0.7c0.2,0.3,0.5,0.5,1,0.5c2.3,0,4.3-0.3,5.9-1
		c1.6-0.7,3.4-1.6,5.5-3c1.8-1.2,3.6-2.1,5.5-3c2.6-2,5.2-3.4,7.7-4.2c2.5-0.8,5.5-1.6,9-2.2c3.8-0.7,7-1.4,9.6-2.2
		c2.6-0.8,5.4-2.2,8.5-4.2c1.9-1.2,4.3-2.9,7-5.2c2.8-2.3,4.2-4,4.2-5h-2.9l5.5-9.2c-0.1-0.5-0.2-1.2-0.2-2c0-1.3,0.2-2.2,0.7-2.7
		c0.4-0.5,1.2-1,2.4-1.5c1.4-0.6,2.6-1.2,3.5-2c1.5-0.9,2.8-1.5,3.8-1.8c1.3-0.3,3.3-0.5,5.9-0.5c-1.9,2-4,3.4-6.2,4.2
		c-1,0.3-2.7,1.2-5.1,2.7c0,0.1,0.1,0.2,0.1,0.2c-0.7,0.3-1.2,0.5-1.6,0.5l0.2,1c0.8,0,1.5-0.1,2.1-0.2c0,0.1,0.1,0.3,0.1,0.4
		l-0.9,2c1.3-0.2,2.6-0.7,3.7-1.5c1.2-0.8,2.5-1.3,4-1.5h-4.8c0-0.7,0.4-1.2,1.2-1.7c0.8-0.5,1.9-0.9,3.2-1.2c1.3-0.3,2.3-0.7,3.1-1
		c0.6-0.2,1.5-0.9,2.9-2.4c1.3-1.4,2.2-2.1,2.6-2.1c0-1-1.2-1.5-3.7-1.5c-2.2,0-4.5,0.4-6.8,1.2c-0.7,0.2-1.3,0.5-1.9,0.9
		c-1.2,0.4-2.5,1-3,1.2c-0.7,0.3-1.3,0.5-1.8,0.5l-0.9-0.2l1.8-2c0-0.1-0.1-0.2-0.2-0.3c2.2-1.5,5.2-3.5,6.8-4.5
		c2.2-1.4,3.7-2.1,4.6-2.1v-1.7c-1,0-1.9,0.2-2.6,0.6c-0.7,0.4-1.6,1.1-2.6,2.1c-1.5,1.7-2.9,2.7-4.2,3.2l-2.2,2.2
		c-0.2-0.1-0.3-0.2-0.4-0.2c-0.3,0-0.6,0.1-1,0.2c-0.4,0.2-0.6,0.3-0.8,0.5v-7.7c0.4-0.3,1.1-0.9,2.1-1.7c0.1-0.1,0.2-0.2,0.3-0.3
		c1.2-0.2,3.5-0.7,4.9-1.5c1.8-1.1,3.2-1.6,4.1-1.6v-1c-1.6,0-3.1,0.6-4.5,1.7c-1,0.8-2.7,1.5-4,1.9c0.6-0.6,1.2-1.2,1.8-1.8
		c0.8-0.9,1.2-2,1.2-3.3c-1.2,0-2.4,0.5-3.7,1.4c-1.3,0.9-2.1,2-2.2,3.3v-6.7l5.3-2v-1.2h-2.6c0.5-0.6,0.8-1.2,0.9-2
		c0.1-0.2,0.2-0.3,0.3-0.5c0.3-0.7,0.4-1.5,0.4-2.4c-0.4,0.3-0.7,0.6-0.9,0.9c0,0,0,0,0,0c-0.1,0.1-0.3,0.3-0.4,0.5
		c0,0,0,0.1-0.1,0.1c0,0,0,0,0,0c-0.3,0.4-0.7,0.9-1.1,1.6c-0.8,1.2-1.4,2.1-1.6,3v-1.2c0-7.1,0.6-11.3,1.8-12.6
		c0.4-0.5,1.5-0.7,3.1-0.7c0.9,0,1.6,0,2.2-0.1v0.3l9.4-1.4c-2.9,2.5-5.2,4.8-6.8,6.9l1.1,0.2c0.6,0,2-1,4.3-3
		c2.3-2,3.6-3.4,4.1-4.2c-0.7-0.3-1.1-1-1.1-2l-10.9,1.4v0.1h-0.3c-3.5,0-5.9,0.8-7.3,2.5V77c0.9,0,1.8-0.3,2.7-0.9
		c1-0.6,1.4-1.3,1.4-2.1l-0.2-1.2c-0.7,0.2-1.4,0.6-1.9,1.2c-0.5,0.7-0.8,1.3-0.8,2c-1.2-0.5-1.8-2.2-1.8-5.2c0-1,2.1-2.4,6.4-4.2
		c4.3-1.8,7.4-2.7,9.5-2.7c0,1-0.1,1.6-0.4,1.9c-0.3,0.2-0.8,0.4-1.5,0.4v2l7-5l4,23.3c-1.9,0.8-4.8,2.6-5.6,3.4
		c-1,1.1-1.7,2.3-2,3.6c0.3-0.2,1.1-0.7,2.5-1.6c0.9-0.6,3.4-1.1,5.2-1.3c0.1,0.5,0.4,0.8,0.8,1v6.9l-1.5-1.7
		c-0.9,0.5-1.5,1.4-1.8,2.7c0-0.3-0.1-0.7-0.3-1.1c-0.2-0.4-0.4-0.7-0.6-0.9c-0.9,0.2-2.1,0.4-3.6,0.7c-1.5,0.3-3,0.7-4.3,1.2
		c0.4,0.2,1.1,0.2,2,0.2c0.9,0,1.7-0.1,2.5-0.2c0.8-0.2,1.6-0.2,2.5-0.2v3c-1.3,0-2.8,1.1-4.4,3.2c2.8,0,5.9-1.6,9.5-5l1.1,2
		c-0.1,1.2-0.3,3.2-0.3,6.1C239.9,111.3,239.5,113.9,238.8,116.3z"/>
	<path class="st0" d="M375.1,161.1c-1.9-2.4-3-3.8-3.3-4.1c-2.1-2.6-3.7-5.3-5.1-8.1c-1.3-2.7-2.1-4.3-2.4-4.8l-3.1-5.9
		c-6.6-12.5-13.3-23.7-20-33.4c0-0.2,1.8-1.6,5.3-4.2c3.4-2.6,5.1-4,5.3-4.2c5-4.5,8.9-9.7,11.7-15.7c2.8-6,4.2-12.4,4.2-19.2
		c0-0.2-0.3-2-0.8-5.6c-0.5-3.5-1.2-7.3-2.1-11.3c-0.3-1.5-1.7-5.3-4.3-11.5c-2.6-6.2-4.3-9.9-5.2-11c-4.5-5.1-9.8-8.5-15.6-10
		c-5.9-1.6-13.3-2.7-22.4-3.3c-1.8-0.2-3.4-0.4-4.8-0.7c-1.5-0.3-2.8-0.6-4-0.7c-4.1-1.2-7.7-1.7-10.8-1.7c-2.2,0-4.3,0.2-6.4,0.5
		c-2.1,0.3-3.3,0.8-3.7,1.5c-0.3,0.5-1.5,0.9-3.5,1.2c-2.1,0.3-3.4,0.5-4,0.5c-4.3,0.3-7.7,0.8-10.3,1.5c-2.6,0.7-4.5,1.8-5.5,3.5
		c0.4,1,1.2,1.7,2.4,2V25c-0.4,0.7-0.7,1.5-0.7,2.5c0,0.8,0.1,1.9,0.3,3.3c0.2,1.4,0.3,2.7,0.3,3.8c0,2.1-0.3,4.7-0.9,7.7
		c-0.6,2.6-0.9,4.8-0.9,6.4c0,13.7,0.6,34.6,1.8,62.7c0.1,4,0.4,11,0.9,21.2c0.4,10.2,0.7,19.3,0.9,27.4c0,1.7,0.1,3.8,0.3,6.3
		c0.2,2.6,0.4,4.7,0.6,6.3c0.1,0.7,0.7,1,1.8,1c1.5,0,3.1-0.1,4.9-0.2c1.8-0.2,3.3-0.3,4.3-0.5c3.1-0.5,6.1-0.7,9-0.7
		c1.5,0,2.7,0.1,3.8,0.2c1.1,0.2,2,0.3,2.7,0.5c2.2,0.5,4.3,0.7,6.4,0.7c1.3,0,2-1.5,2-4.5c-0.4-2.3-1.3-8.4-2.5-18.2
		c-1.2-9.8-2.5-21.8-3.8-36c0-0.2,0.1-0.4,0.3-0.6c0.2-0.2,0.5-0.4,0.8-0.4c9.5,0,16.4,3.2,20.7,9.7c0.4,0.7,0.8,1.8,1.2,3.5
		c0.4,1.7,0.8,2.8,1.2,3.5c3.2,6.1,5.9,11,8.1,14.7c2.2,3.7,4.8,7.3,7.7,10.8c2.2,2.6,4.5,5.3,6.9,8.1c2.4,2.7,4.1,4.6,5.2,5.6h26
		c0.1,0,0.5-0.3,1-1c0.5-0.7,0.8-1.2,1-1.5C378,165.6,377,163.5,375.1,161.1z M362.4,152.1c0,0.5-2.1,1.6-6.2,3.2l-4.4,1.7v-1
		c3.8-2.5,6.7-5.1,8.8-7.9L362.4,152.1z M352.3,88.6c-3.7,3.7-8.3,6.7-13.7,9c-5.4,2.3-10.6,3.5-15.4,3.5c3.4-3,6.9-5.7,10.6-8.1
		c3.7-2.4,7.2-4.7,10.6-6.8c1.2-0.8,3.2-2.1,6-3.7c2.9-1.6,5.4-3.3,7.6-5C358,81.2,356.1,84.9,352.3,88.6z M328.3,111l1.1,0.2
		l-4.6,4.7h-1.5v-2c0.4-0.5,1.2-1.1,2.4-1.9C326.8,111.4,327.7,111,328.3,111z M327.6,108c1-1.6,3.6-3.3,7.7-5l0.9,2.2L327.6,108z
		 M332.9,111.6c1.6-1.1,3-1.6,4.2-1.6c0.1,0,0.3,0.2,0.6,0.6c0.2,0.4,0.3,0.8,0.3,1.1c0,0.3-1.1,1-3.3,2c-2.2,1-3.6,1.5-4.2,1.5
		l-1.1-0.2C330.1,113.8,331.3,112.7,332.9,111.6z M344.1,62.2l5.1-2v-1.7c1-0.3,2.9-0.9,5.6-1.7c2.7-0.8,4.9-1.6,6.5-2.5v1
		c-1.2,0.5-2.5,1.4-4.1,2.8c-1.5,1.4-2.5,2.3-2.7,2.6c-4.1,4.3-7.2,6.4-9.2,6.4c-0.9,0-1.3-1.2-1.3-3.7L344.1,62.2z M342.1,55.7
		c0-2.5,0.2-4.3,0.7-5.6c0.4-1.2,1.5-2.1,3.1-2.6c1.6-0.7,3.8-1.4,6.6-2.4c2.8-0.9,4.6-1.4,5.5-1.6c-1.6,2.1-4.2,4.7-7.8,7.7
		C346.6,54.3,343.9,55.7,342.1,55.7z M344.1,74.8l10.3-4.7l0.9,0.7c-1,0.7-3,1.7-6,3.1c-3,1.4-4.7,2.1-5.2,2.1V74.8z M361.7,58
		l0.2,3.5c0,3.3-0.2,6.4-0.7,9.2c-0.4,2.8-1.2,4.2-2.2,4.2c-2.2,0-5.5,1-9.9,3v-1c0.3-0.2,1.3-0.6,3-1.4c1.7-0.7,3.5-1.8,5.4-3.2
		c1.9-1.4,2.9-2.9,2.9-4.6c-0.6,0-1.2-0.1-1.9-0.4c-0.7-0.2-1.1-0.4-1.4-0.4c-0.3,0-2.3,0.7-5.9,2.2c-2.9,1.3-4.7,2-5.3,2v-1
		l7.9-5.7C358.2,61.3,360.8,59.1,361.7,58z M360.6,49.9c0.4,1.1,0.7,1.9,0.7,2.4c0,0.5-1.1,1.1-3.3,1.9c-2.2,0.7-3.4,1.1-3.5,1.1v-1
		c-1,1-2.5,1.7-4.4,2.2c-1.9,0.5-3.3,0.7-4.2,0.7l0.7-2c2.2-1.2,4.6-2.5,7.1-4.1c2.6-1.6,4.4-2.8,5.4-3.6
		C359.6,48.1,360.2,48.9,360.6,49.9z M355.8,36.7c0.3,0.3,0.8,1,1.4,1.9c0.7,0.9,1.2,1.6,1.7,2.1c-1.2,1-3.3,1.8-6.4,2.5
		c-3.1,0.7-5.3,1.5-6.6,2.5c0-1.2,1.4-2.9,4.1-5.2C352.6,38.1,354.6,36.8,355.8,36.7z M354.4,33.7c-1.8,1.3-3.4,2.9-5.1,4.7
		c-2.9,3-5.6,5-7.9,6.2c-1.8-1.3-2.6-2.6-2.6-4c0.4-0.3,1.5-1.1,3.3-2.2c1.8-1.2,3.7-2.3,5.8-3.3c2.1-1.1,3.9-1.6,5.4-1.6
		C353.9,33.5,354.3,33.5,354.4,33.7z M351.8,26.1c0.7,0.6,1.3,1.1,1.8,1.6c0,0.3-0.2,0.9-0.5,1.7c-0.4,0.8-0.6,1.5-0.6,2
		c-2.3,0-5.4,1.2-9.2,3.7c-1.5,1-3.1,1.9-4.8,2.6c-1.8,0.7-3.4,1.1-4.8,1.1v-1.2c0.9-0.8,1.7-1.5,2.5-2.1c0.8-0.6,1.6-1.2,2.3-1.9
		C345,27.9,348.9,25,350,25C350.5,25.2,351.1,25.6,351.8,26.1z M342.3,28.2c-1.5,1.7-3,3.2-4.5,4.7c-1.5,1.5-2.7,2.2-3.4,2.2v-1.5
		c-0.4,0.3-1.1,0.9-2.1,1.7c-1,0.8-1.7,1.2-2.3,1.2c-2.5-0.3-3.7-1.3-3.7-3c0-1.2,3.2-3.2,9.5-6.2c6.3-3,10.2-4.5,11.7-4.5
		C346.4,23.9,344.7,25.6,342.3,28.2z M340.1,18.1c0.9,0,1.9,0.2,3,0.5c1.1,0.3,1.7,0.8,1.7,1.5v1c-2.1,0.3-5.7,2.1-11,5.4
		c-5,3.1-8.3,4.7-9.9,4.7c0-1,2.3-3.4,7-7.3C335.6,20,338.7,18.1,340.1,18.1z M329.4,14.1c1,0.8,1.9,1.2,2.6,1.2
		c0,0.8-0.9,1.7-2.7,2.7c-1.8,1-3,1.7-3.4,2l-0.4-0.7c0.3-0.3,1-1.3,2-2.8C328.4,14.9,329.1,14.1,329.4,14.1z M312.8,14.1
		c0.8-0.5,1.8-0.8,2.9-1c1.1-0.2,1.6-0.2,1.6-0.2s0.1,0,0.4,0c0,0.2,0.1,0.4,0.4,0.7c0,0.2-0.8,0.7-2.3,1.5c-1.5,0.8-2.9,1.5-4.1,2
		l-0.2-0.7C311.5,15.4,311.9,14.6,312.8,14.1z M293.4,15.6c2.7-2.6,4.6-4.5,5.6-5.4c0.7,0,1.6,0.2,2.6,0.6c1,0.4,1.8,0.6,2.4,0.6
		l0.9-0.2c-0.6,0.7-1.5,1.4-2.7,2.2c-1.2,0.8-2.3,1.4-3.2,1.7v2l4.8-1.7l5.5-2.2c0,1-0.3,2-1,3s-1.5,1.9-2.4,2.8
		c-1,0.9-1.6,1.6-1.9,2.1c-0.4,0.7-1.4,1.2-2.9,1.5c-1.5,0.3-2.6,0.8-3.3,1.4c-0.7,0.6-1.1,1.8-1.1,3.6c0.9,0,3-0.9,6.4-2.7
		c3.4-1.8,5.6-3.1,6.8-3.7l10.6-5.9l0.7,0.2c0.6,0,1.3-0.2,2.2-0.6c0.9-0.4,1.7-0.6,2.4-0.6c-1.6,2.1-4.5,4.7-8.6,7.7
		c-0.4,0.3-1.4,1-3,2.1c-1.5,1.1-3,2.4-4.3,3.8c0.3,0.8,0.9,1.2,1.8,1.2c1.9,0,5.4-1.6,10.3-4.7c2.9-2,5.9-3.6,8.8-5
		c0.3,0,0.6,0.2,0.8,0.5c0.2,0.3,0.3,0.7,0.3,1c-1,0-2.1,0.5-3.1,1.5c-1,1-2,2.1-2.9,3.5c-1.2,1.7-2.2,2.9-3.2,3.8
		c-1,0.9-2,1.4-3.2,1.4c-13.2,0-20.5,0-21.9,0.1c-1.4,0.1-2.2,0.1-2.3,0.1c-3.4,0-5.9,0.4-7.7,1.2c-1.8,0.8-4,2.2-6.6,4.2l-5.7,4h-2
		c0.3-0.3,1.8-2.1,4.4-5.4c2.6-3.3,4.2-5.8,4.6-7.4c0.9,0,3-1.2,6.3-3.6c3.3-2.4,4.9-4,4.9-4.8c0-0.7-0.1-1.1-0.2-1.2
		c-1.2,1.3-2.6,2-4.4,2C289.3,19.7,290.7,18.3,293.4,15.6z M290,11.2c-0.3,1.3-1.7,2-4.2,2c-0.1,0-0.3-0.1-0.6-0.2
		c-0.2-0.2-0.3-0.3-0.3-0.5L290,11.2z M282.7,13.1c0.3,0,0.6,0.2,1,0.6c0.4,0.4,0.6,0.8,0.6,1.1c-0.4,0-1.8,1-4.2,3
		c-3.4,2.8-5.6,4.2-6.6,4.2c0.6-1.5,2-3.3,4.2-5.6C279.9,14.3,281.6,13.1,282.7,13.1z M279,13.1c-0.4,0-1.1,0.7-2,2
		c-0.9,1.3-1.7,2.4-2.4,3.1c-0.7,0.7-1.6,1.1-2.6,1.1c-0.1-0.3-0.3-0.8-0.6-1.4c-0.2-0.6-0.3-0.9-0.3-1.1
		C271.1,14.4,273.7,13.1,279,13.1z M273.3,26c1.6-2.6,4.7-4.9,9.2-6.7c0,0.2,0.1,0.3,0.2,0.5c0.1,0.2,0.4,0.2,0.7,0.2
		c0.3-0.2,1.4-1.2,3.2-3.1c1.8-1.9,3.3-2.8,4.5-2.8v1c-10.4,9.3-16.8,16.8-19.1,22.5h-1.1C270.8,32.5,271.7,28.7,273.3,26z
		 M270.4,60.3c-0.1-1.7-0.2-2.6-0.2-2.6c0-0.8,1.2-2,3.6-3.6c2.4-1.6,5.8-3.4,10-5.6l4.4-2.5l0.2-1.2c-4,0-6.9,1.6-8.8,4.7v-1.2
		c-0.7,0.2-1.6,0.8-2.5,2c-1,1.2-1.8,1.8-2.5,2l6.2-7.7l-1.1-2c-0.7,0.7-1.6,1.9-2.7,3.6c-1.1,1.7-2.2,3.1-3.2,4
		c-1,0.9-2.5,1.4-4.4,1.4c0-0.3,0.1-1.3,0.3-3c0.2-1.6,0.7-2.6,1.4-3l13-6.9c0,0.2,0.2,0.4,0.7,0.7c0,0.2-0.4,0.6-1.3,1.4
		c-0.9,0.7-1.5,1.4-2,1.9l1.1,1c5-3.6,9.4-5.9,13.3-6.7c3.9-0.8,10.1-1.2,18.6-1.2c0,1.3,0.4,2,1.3,2c0.4,0,0.8-0.3,1-0.9
		c0.2-0.6,0.4-0.9,0.5-1.1c0.6,1.2,1.7,1.9,3.4,2.2c1.7,0.3,2.8,0.6,3.4,0.7c1.2,0.5,2,1.2,2.4,2.2c0.4,1,1,1.7,1.6,2.1
		c0.7,0.4,1.9,0.6,3.8,0.6c2.1,0,3.8,3.5,5.4,10.4c1.5,6.9,2.3,12.6,2.3,16.8c0,4.8-2.2,8.3-6.5,10.7c-4.3,2.3-9.3,3.5-14.8,3.5
		l-8.4-0.2c-2.5,0-5.2-0.9-8-2.6c-2.9-1.7-4.5-2.6-4.9-2.6c0-2.6-0.4-7.9-1.3-15.9c-0.9-7.3-1.3-11.6-1.3-13.1
		c0-4.5,0.1-7.1,0.2-7.9c-0.4-2-1.4-3-2.9-3c-0.9,0-1.4,1-1.7,3c-0.2,2-0.5,3.3-0.8,4c-0.6,1-1.8,2.1-3.5,3.5
		c-2.3,1.5-3.8,3.2-4.4,5.2c-1.3,0.5-2.9,1.5-4.6,3.1c-1.8,1.6-3.7,3.5-5.7,5.8C270.8,63.3,270.6,62.1,270.4,60.3z M286.6,66
		c1.2-1.6,1.9-3.5,1.9-5.8l-8.8,9.9c-0.9,1.3-2.4,2.8-4.5,4.3c-2.1,1.6-3.5,2.7-4.1,3.3v-7.7c0.6-0.3,3.4-1.9,8.6-4.8
		c5.1-2.9,7.7-5.2,7.7-7.1h-0.9l-11.9,6.9l-1.8,1.7c-0.3,0-0.6-0.2-0.8-0.5c-0.2-0.3-0.3-0.6-0.3-0.7c0-0.5,2.5-2.8,7.4-6.9
		c4.9-4.1,8.3-6.9,10.2-8.4l-0.2,3c0,1.8,0.1,4.4,0.4,7.7c0.3,3.3,0.4,5.7,0.4,7.2c-0.3,0.5-0.8,1-1.6,1.5c-0.8,0.5-1.4,0.7-1.7,0.7
		c-1.6,0-3,0.5-4.3,1.5c-1.2,1-2,1.6-2.3,1.7c-2.1,2-3.9,3.1-5.5,3.2c0.7-0.7,1.8-1.8,3.2-3.3c0.6-0.7,1.1-1.3,1.4-1.7l0,0
		C281.7,68.8,285.3,67.6,286.6,66z M274.5,80.4c2.3-1.7,5.6-3.8,10-6.3c3.2-1.8,5.1-2.9,5.5-3.2c0.9,2.3,1.3,5.3,1.3,8.9H290
		c-1,0.7-3.5,1.9-7.4,3.8c-3.9,1.9-6.9,3.6-9.1,5.1v-1.2c1.6-1,4.5-3.4,8.8-7.3c4.3-3.9,6.6-6.3,7-7.3c-0.7,0-1.9,0.5-3.5,1.6
		c-1.6,1.1-2.7,1.9-3.3,2.4v1.7c-0.9,0-2.7,1.1-5.4,3.2c-2.7,2.1-4.7,3.8-6,5C271.1,84.2,272.2,82.1,274.5,80.4z M271.5,99.8
		l0.4-6.4c0.4-0.2,2.6-1.6,6.6-4.2c4.1-3,6.7-4.5,7.7-4.5c0.4,0,1.4-0.5,2.9-1.6c1.5-1.1,2.6-1.6,3.3-1.6c0,1.7-0.9,3.3-2.6,5.1
		c-1.8,1.7-4.3,3.8-7.7,6.1c-4.1,2.8-6.6,5-7.5,6.4l1.8,1.2l20.9-12.9l2-0.2l-0.2,1c-1.3,0-2.4,0.3-3.2,1c-0.8,0.7-1.6,1.7-2.3,3
		c-1.3,2.1-2.7,3.2-4.2,3.2c-1.3,0.3-4.1,2.5-8.5,6.4c-4.3,4-7,6.7-8,8.2C271.9,108,271.5,104.6,271.5,99.8z M290,89.4v1.2l-5.1,2.7
		v-1L290,89.4z M291.5,116.7c-1,0-2,0.4-3,1.2c-1,0.8-2.2,2.1-3.8,4c-1.9,2.1-3.6,3.8-5,5c-1.4,1.2-2.8,1.7-4.3,1.7h-0.9v-3
		l18.9-12.6c1.3,6.3,2,10.5,2,12.6c0,1.5-1.2,2.2-3.7,2.2l-15.4,5.7c0-1.2,0.8-2.5,2.5-4.1c1.7-1.6,4.2-3.7,7.6-6.3l5.3-4.2l1.1-2
		L291.5,116.7z M276.3,117.4c-1.5,1.2-2.4,2.6-2.9,4.2c0-2.6,0.1-4.3,0.4-5c0.3-0.7,0.9-1.2,1.8-1.6c0.9-0.4,1.6-1.1,2.2-2.1l11.4-5
		c-0.9,1.5-3.2,3.4-7,5.7C279.8,115,277.8,116.3,276.3,117.4z M280.9,109c-1.1,1.5-2.3,2.2-3.6,2.2l1.8-4c0.1,0,0.6-0.5,1.4-1.5
		c0.8-1,1.5-1.5,2.1-1.5C282.5,106,282,107.5,280.9,109z M273.7,139.7c0.1-1,0.4-2.1,0.9-3.2c2.2-0.5,4.5-1.4,6.8-2.7
		c0.6-0.2,2-0.7,4.2-1.7c2.2-1,4.3-1.5,6.2-1.5c-1.6,2.5-4.3,5.4-7.9,8.8c-3.7,3.4-6.7,6-9.2,7.8c-0.7-0.7-1.1-2.1-1.1-4.2
		C273.5,141.8,273.6,140.7,273.7,139.7z M298,163c0.7,1.8,1,3.1,1,3.7c-4.7,1.2-9.6,1.8-14.6,1.9c-5.1,0.1-8.3,0.1-9.8,0.1v-18.1
		c0.6,0,4.2-1.6,10.8-5c6.6-3.3,9.9-5.1,9.9-5.4c-2.3,0.5-4.2,1-5.6,1.5c-1.4,0.5-2.7,1.3-3.8,2.5v-2l-4.4,2c0.7-1,2.9-3,6.4-5.9
		c0.4-0.3,1.6-1.4,3.6-3.2c2-1.8,3-3.1,3-4c0-0.8,0.3-1.2,0.9-1.2l0.9,10.2c0,1.2-0.9,2.4-2.6,3.8c-1.8,1.4-4.4,3.3-7.9,5.8
		c-5,3.3-8.1,5.8-9.2,7.4c0,0.2,0.1,0.4,0.3,0.6c0.2,0.2,0.5,0.4,0.8,0.4c1.6,0,3.1-0.3,4.4-0.9c1.3-0.6,2.9-1.4,4.8-2.6
		c1.9-1.2,3.6-2,4.9-2.6c1.4-0.6,2.9-0.9,4.5-0.9c-1.9,1.3-4.9,3.5-9,6.4c-4.1,3-7.2,5.4-9.2,7.2h8.8c1.2,0,2.7-0.7,4.6-2.2
		c2.3-1.5,4-2.2,5.1-2.2C296.8,160.3,297.4,161.2,298,163z M296.6,148.9c-1.6,0-3.1,0.3-4.5,0.9c-1.4,0.6-2.6,1-3.6,1.4
		c0.6-1,1.6-2.2,3.1-3.7c1.5-1.5,2.6-2.2,3.5-2.2C296.1,145.2,296.6,146.4,296.6,148.9z M297.5,154.1c0,2.8-1.4,4.8-4.2,6.1
		c-2.8,1.2-5.6,1.9-8.4,1.9l11.2-7.9H297.5z M313.5,111.2c-1.5,0-4-0.1-7.7-0.4c-3.7-0.2-7.4-0.5-11.2-0.9c-1,0.5-2.3,1.3-4,2.4
		c-1.6,1.1-3.2,1.6-4.8,1.6c0.6-0.8,1.4-1.8,2.3-2.8c1-1.1,1.6-1.7,1.9-1.9c2.3-1.2,6.5-2.9,12.3-5.2c7.3-3,12.8-5.4,16.5-7.2
		c3.7-1.8,5.5-3.3,5.5-4.5l-0.2-1c-1.2,0.3-2.7,0.8-4.7,1.5c-2,0.7-3,1.2-3.2,1.5l-12.1,5.9c-1.2,0.8-3.8,2-7.9,3.5
		c-4.1,1.5-8.1,2.6-12.1,3.5c0-2.6,1.2-5.4,3.7-8.2c2.5-2.8,5.3-5.2,8.4-7.3c3.1-2.1,4.9-3.1,5.5-3.1c0.4,0,1,0.2,1.8,0.6
		c0.7,0.4,1.2,0.9,1.5,1.4c-0.6,1.2-2.9,3.1-6.9,5.7c-4,2.6-7.3,4.5-9.8,5.7v2c2.2-0.8,4.2-2.1,5.9-3.7c2.6-2,4.1-3.1,4.4-3.2
		c3.5-1.6,6.7-3.5,9.7-5.7c0.4,0.2,1.2,0.2,2.4,0.2c3.2,0,7.3-0.5,12.3-1.6c5-1.1,8.8-2.2,11.4-3.3c1-0.5,2.5-1.3,4.3-2.4
		c1.8-1.1,3.6-1.6,5.4-1.6c-2.8,1.8-5,3.5-6.6,5c-0.4,0.3-1.7,1.3-3.8,2.8c-2.1,1.6-3.8,2.4-4.9,2.4c0-1.5-0.7-2.2-2.2-2.2
		c-0.6,0-0.9,0.6-0.9,1.7c0,1.2,0.3,1.8,0.9,2c-0.1,0.5-1,1.1-2.4,1.9c-1.5,0.7-2.5,1.3-3.1,1.6c-4,2-7.1,3.8-9.6,5.4
		c-2.4,1.7-3.6,3.6-3.6,5.7c0.7,0,1.8-0.2,3.2-0.5c1.4-0.3,2.5-0.5,3.4-0.5L313.5,111.2z M321.4,101.1c0,1-0.1,1.6-0.4,1.9
		c-0.3,0.2-0.9,0.4-1.8,0.4l-1.3-0.2L321.4,101.1z M318.8,110c-0.3,0-0.8-0.3-1.6-0.9c-0.8-0.6-1.2-1-1.2-1.4c0-0.3,2-1.3,5.9-3
		c4-1.6,6.7-2.5,8.1-2.5c-0.9,0.7-2.7,2.1-5.6,4.3C321.6,108.9,319.7,110,318.8,110z M324.3,123.5c-0.6-1.4-0.9-2.1-0.9-2.1
		s-0.1-0.2-0.2-0.5c1.3-1.8,2.2-2.7,2.6-2.7c0.4,0,0.7,0.6,0.7,1.7c1.2-0.2,2.4-0.7,3.7-1.5c1.3-0.8,2.1-1.3,2.4-1.5
		c0.4-0.2,1.4-0.7,2.9-1.5c1.5-0.8,2.9-1.2,4.2-1.2l1.1,0.2c-0.1,0.7-0.9,1.7-2.2,3c-1.3,1.3-2,2.1-2,2.2c0.3,0.5,0.4,0.9,0.4,1.2
		c0.6-0.3,1.4-1.1,2.5-2.2c1.1-1.2,1.9-1.7,2.5-1.7c0.9,1,2.6,2.9,5.2,5.8c2.6,2.9,3.8,4.7,3.8,5.3c-1,1.2-2.6,2.3-4.8,3.3
		c-2.2,1.1-4.1,1.8-5.7,2.1v-1l5.9-6.9l-0.7-2.7l-1.8-0.2c-1.5,0-3.7,0.5-6.6,1.5c-2.6,1-4.8,1.5-6.6,1.5c0.4-0.7,1.1-1.3,2-2
		c0.9-0.7,1.5-1.2,1.9-1.7c0.4-0.5,0.6-1.2,0.6-2.2c-1.2,0.5-2.8,1.7-5,3.6c-2.1,1.9-3.4,3-3.8,3.3
		C325.6,125.9,324.9,124.9,324.3,123.5z M334.4,144.9v-1.5c-1.5-3-3-5.9-4.6-8.8c-1.6-2.9-2.7-4.9-3.3-6.1l1.8-0.7v1.7
		c1.5,0,3-0.3,4.5-1c1.5-0.7,2.6-1.1,3.2-1.2c3.2-1.8,6.2-2.7,8.8-2.7c-3.1,4.5-5.6,6.8-7.7,6.9l-4.4,5c0.1,0.7,0.7,1,1.5,1
		c2.3,0,4.8-0.9,7.5-2.7c2.9-1.6,5.3-2.5,7-2.5l1.3,0.2c-0.4,0.7-1.7,1.5-3.8,2.6c-2.1,1.1-3.2,2.1-3.2,3.1h2.9l6.8-5.7
		c0.3,0.8,0.6,1.7,1,2.5c0.4,0.8,0.6,1.5,0.8,2c0,0.5-1.9,1.7-5.8,3.6c-3.9,1.9-6.3,2.8-7.1,2.8c-0.1,0-0.3-0.2-0.6-0.5
		c-0.2-0.3-0.3-0.6-0.3-0.7c1.3-0.3,2.1-1,2.4-2c-0.1-0.2-0.4-0.3-0.8-0.5c-0.4-0.2-0.6-0.2-0.8-0.2c-0.7,0-1.8,0.9-3.3,2.7
		C336.7,144,335.4,144.9,334.4,144.9z M337.9,147.2c0.4-0.5,2.9-1.6,7.5-3.2c6.6-2.8,9.9-4.3,9.9-4.5c0.1,0,0.3,0.1,0.6,0.2
		c0.2,0.2,0.3,0.3,0.3,0.5c-2.3,0.8-5.1,2.6-8.2,5.3c-3.2,2.7-5,5.2-5.6,7.6C339.7,150.8,338.2,148.8,337.9,147.2z M345.6,158.1
		c0,0-0.5-1-1.5-3c1.2-0.2,2.6-0.7,4.4-1.7c1.8-1,2.6-2.1,2.6-3.2c0-0.5-0.1-0.8-0.2-1c-0.6,0.3-1.4,0.9-2.3,1.6
		c-1,0.7-1.9,1.2-2.7,1.4c1.3-1.8,3.1-3.9,5.4-6.3c2.3-2.4,4.1-3.6,5.4-3.6c0.4,0,0.9,0.4,1.4,1.1c0.5,0.7,0.8,1.4,0.8,1.9
		c0,0.5-1,1.2-2.9,2.1c-1.9,0.9-3,1.5-3.3,1.9c-0.3,0.7-0.7,1.7-1.2,3.2c-0.5,1.5-1.1,2.8-1.7,4c-0.6,1.2-1.4,1.7-2.4,1.7
		C346.2,158.1,345.6,158.1,345.6,158.1z M349.2,160.8l13.9-6.7c-0.6,1.8-2,3.6-4.2,5.4c-2.2,1.8-4.3,3.2-6.2,4.2
		C351.2,163.3,350,162.3,349.2,160.8z M365.8,165.6c-3,0.6-5.3,0.9-6.9,0.9l-1.8-1.7c0.6-0.5,2.4-1.3,5.4-2.4c3-1.1,4.9-1.6,5.8-1.6
		c0.1,0,0.5,0.3,1,0.9c0.5,0.6,0.8,1.1,1,1.6C370.3,164.2,368.8,165,365.8,165.6z"/>
	<path class="st0" d="M591.6,141.7c-0.1-1.8-0.4-4.8-0.7-9c-0.3-4.2-0.4-8.1-0.4-11.8c0-9.1,0.4-20.1,1.3-32.9l0.4-11.1
		c-0.4-3.3-0.7-7-0.7-11.1c-0.1-5.3-0.4-9.2-0.8-11.8c-0.4-2.6-1.2-3.8-2.5-3.8h-15.2c-2.1,0-3.6,0.2-4.7,0.7
		c-1.1,0.5-2.1,1.3-2.9,2.5c-0.8,1.2-1.5,2.1-2.1,2.7c0,0.3,0.4,0.9,1.2,1.6c0.8,0.7,1.2,1.4,1.2,1.9s-0.4,1-1.1,1.5
		c1.2,7.4,1.8,13.1,1.8,17.1c0,1.2-0.1,3.4-0.4,6.7c-0.4,7.9-0.7,14.6-0.7,20.1l1.1,11.6c-0.4,4.5-1.2,13.3-2.2,26.5
		c-1,13.2-1.5,20.7-1.5,22.5c0,0.7-0.1,1.4-0.4,2.1c-0.3,0.7-0.4,1.4-0.4,2.1c0,1,0.6,1.7,1.8,2.2c4,0,8.6,0.2,13.9,0.5
		c5.3,0.3,9.7,0.5,13.2,0.5c0.7,0,1.3-0.5,1.8-1.4c0.4-0.9,0.7-1.9,0.7-2.8C593.1,160.3,592.6,151.3,591.6,141.7z M572.2,109
		c0.3,0,0.7,0.1,1.3,0.4c0.6,0.2,1.1,0.5,1.5,0.6c0.9,0,2.3-0.4,4.3-1.1c2-0.7,3.3-1.1,4.1-1.1c0.3,0,0.7,0.2,1.1,0.5
		c0.4,0.3,0.7,0.6,0.9,0.7c-1.2,1.3-3.4,3.3-6.8,5.8c-3.4,2.6-5.5,3.8-6.4,3.8h-1.3c0-2,0.1-3.9,0.2-5.8
		C571.3,110.9,571.6,109.7,572.2,109z M571.1,97.1c1-0.2,3.1-0.7,6.2-1.7c3.1-1,5.4-1.5,6.8-1.5l1.3,0.2c-1.2,2-3.3,3.9-6.4,5.7
		c-3.2,2.1-5.5,4.1-6.8,5.9c-0.6-0.5-0.9-1.4-1-2.8C571.1,101.5,571.1,99.6,571.1,97.1z M581.9,105.9c-2.1,0.4-3.7,0.7-5.1,0.9
		c0-0.5,0.7-1.4,2-2.8c1.3-1.4,2.6-2.1,4-2.1c1.5,0,2.7,1,3.7,3C585.5,105.1,583.9,105.5,581.9,105.9z M585.4,90.9
		c-2.1,0-4.7,0.5-7.9,1.4c-3.2,0.9-5,1.5-5.3,1.9h-1.1c1.3-2.1,3.5-4.2,6.6-6.2c3.1-2,6-3.5,8.8-4.7L585.4,90.9z M577.7,86.5
		c-2.5,1.7-4.8,2.5-6.8,2.5c0-2.3,1.2-4.2,3.7-5.7c2.5-1.5,5-2.2,7.5-2.2l1.3,0.2C582.1,83.1,580.2,84.8,577.7,86.5z M571.8,78.3
		c-0.9,0-1.3-1.9-1.3-5.7c0.1-1,1.9-2.1,5.4-3.3c3.4-1.2,6.6-2.2,9.6-2.8C579,74.3,574.4,78.3,571.8,78.3z M581.7,121.6
		c-2.2,3.6-5.7,6.5-10.6,8.7l-0.7-3.2C571.2,126.6,574.9,124.8,581.7,121.6z M575.1,137.9c3.1-0.7,5.3-1.2,6.6-1.4l1.8,0.2
		c-1.9,1.8-4.5,4-7.7,6.6c-3.2,2.6-5,3.9-5.3,4.1V140C570.4,139.3,572,138.6,575.1,137.9z M573.1,149.6c1.6-1.6,3.8-3.5,6.6-5.7
		c2.8-2.1,4.4-3.5,4.8-4c0.7,0,1.1,0.7,1.1,2.2l-0.2,5.2c-1.2,0.3-3.1,1-5.7,2c-2.6,1-4.8,1.5-6.6,1.5V149.6z M572,136
		c0-1,2.1-3.5,6.3-7.4c4.2-4,7-5.9,8.5-5.9C586.7,131.5,581.8,136,572,136z M583.8,119.4c-2.4,1.7-5.3,2.5-8.7,2.5l-0.9-0.2l0.9-1
		l12.3-8.4C587.4,115.4,586.2,117.8,583.8,119.4z M586.5,72.1c0,3-0.4,4.5-1.1,4.7l-11.2,4.5c3.8-5.4,7.9-9.1,12.3-10.9V72.1z
		 M585.4,64.2c-0.1,0.2-1.8,0.8-5.1,1.9c-3.2,1.1-5.9,1.9-8.1,2.4c0.4-0.7,2.5-2.5,6.1-5.4c3.6-3,6-4.5,7.1-4.5V64.2z M583.4,55.7
		c-0.7,0.2-1.7,0.8-3,1.9c-1.2,1.1-2,1.8-2.3,2.1c-3.2,3-5.4,4.5-6.4,4.5c-0.6,0-1.1-1.1-1.7-3.3c-0.5-2.2-0.8-3.9-1-5.1H583.4z
		 M569.1,158.1c0-1.2,0.5-2.1,1.4-2.8c1-0.7,2.2-1.4,3.7-2c1.5-0.6,2.7-1.1,3.6-1.6l0.9,1c-0.3,0.2-1.6,1-4.1,2.4
		c-2.4,1.4-4.2,3.2-5.4,5.3C569.2,160.1,569.1,159.4,569.1,158.1z M570.4,163.5c1.5-2.3,4.1-4.4,7.9-6.2c4-2.1,6.3-4,7-5.7l2,5.7
		c0,1.3-2.3,2.7-7,4.1C575.7,162.8,572.4,163.5,570.4,163.5z M586.8,165.9c-1.1,0.6-2.7,0.9-4.7,0.9c-0.7,0-1.8-0.4-3.3-1.2
		c1.8-1.3,3.3-2.3,4.7-2.8c1.4-0.6,3-0.9,4.9-0.9C588.5,163.9,587.9,165.3,586.8,165.9z"/>
	<path class="st0" d="M715.4,20.1c0-1.2-0.1-1.9-0.4-2.2c-0.3-0.3-1.1-0.5-2.4-0.5h-38.3c-1.8-0.8-3.8-1.3-6.2-1.5
		c-2.3-0.2-3.8-0.2-4.4-0.2c-2.6,0-4.5-0.1-5.7-0.2c-5.3-0.7-16.3-1-33-1c-2.3-0.7-4.3-1-5.7-1c-10,0-15,1-15,3
		c0.1,0.3,0.3,0.8,0.4,1.5c0.1,0.7,0.3,1.2,0.4,1.5l0.7,22.3c0,1.2,1.5,2.1,4.4,2.7c2.9,0.7,5.4,1,7.3,1c0.9,0,2.8-0.2,5.7-0.5
		l1.8,1h14.7c0.3-0.2,0.6,2.1,1,6.8c0.4,4.7,0.6,8.3,0.8,10.8c0.6,0.7,0.9,2,0.9,4c0,5.1-0.1,12.6-0.4,22.5
		c-0.3,11.2-0.4,20.6-0.4,28c1.8,9.6,2.9,17.8,3.5,24.5c0,1,0,3.4,0,7.2c0,3.8,0.3,7.9,0.9,12.4c0.6,4.5,1.8,6.7,3.5,6.7l27.5,2
		c1.2,0,1.9-0.5,2.3-1.4c0.4-0.9,0.5-2.2,0.5-3.8c0-2.6-0.1-6.8-0.4-12.4c-0.4-4-0.7-8-0.7-12.1c0-3.8,0.1-9.2,0.4-16.1
		c0.4-5.4,0.7-11,0.7-16.6c0-15.9-1-29.8-2.9-41.9l-0.9-5.5c-1.2-5.9-1.8-10.6-1.8-13.9v-1.2c1.9-0.7,3.5-1,4.8-1l4.2,0.2
		c2.1,0,4.4-0.2,7-0.5c2.6-0.3,4.5-0.6,5.5-0.7c4.1-0.8,7.6-1.2,10.6-1.2l7,0.2l0.9-1.2l-0.2-8.2c0-2.1,0.2-4,0.7-5.7
		C715.2,24.3,715.4,21.7,715.4,20.1z M635.8,25.5c0.6-0.7,1.8-1.8,3.7-3.3c1.9-1.6,3.5-2.4,4.8-2.4c1.5,0,2.5,0.2,3.1,0.5
		c-1.9,2.5-4.8,5.2-8.6,8.3c-3.8,3.1-7,5.2-9.7,6.3v-1c1.6-1.5,3.1-3.3,4.4-5.3C634.9,26.6,635.6,25.5,635.8,25.5z M630.9,20.1
		l4.4,0.2c-1,1.5-4.2,4-9.5,7.6c-5.3,3.6-8.6,5.3-9.9,5.3c0-3.6,1.7-6.7,5.1-9.3C624.4,21.4,627.7,20.1,630.9,20.1z M610.3,36.9
		h-1.3c0-0.3,0.4-1.5,1.3-3.5c0-1.3-0.3-3.1-0.9-5.4c-0.7-2-1.1-3.7-1.1-5.2c0-1.5,0.4-2.4,1.1-2.8c0.7-0.4,1.8-0.6,3.3-0.6
		c0.4,0.2,1,0.2,1.5,0.2l2.9-0.2c0.3,0,0.7,0.1,1.1,0.2c0.4,0.2,1,0.2,1.5,0.2c0.3,0,0.9-0.2,1.8-0.5c-1.9,1.3-3.4,3-4.6,5.1
		c-1.2,2.1-2.3,4.6-3.5,7.6C612.2,35.3,611.1,36.9,610.3,36.9z M622.4,38.9h-8.8c1.9-2.8,3.4-4.2,4.6-4.2l0.7,0.2l11.2-6.9
		c-1.2,2.3-2.6,4.7-4.3,7.2C624.1,37.7,622.9,38.9,622.4,38.9z M632.5,39.9l-5.1-0.2c0.1,0,0.3-0.1,0.5-0.4c0.2-0.2,0.4-0.4,0.5-0.4
		c0.4-0.5,1.8-1.4,4.2-2.8c2.3-1.4,4.1-2.8,5.3-4.1h1.8c-0.4,0.3-1,1-1.5,2c-0.6,1-1,1.7-1.1,2.2c0,0.3,0.1,0.6,0.2,0.9
		c0.1,0.2,0.2,0.5,0.2,0.6c1.5,0,3.8-1.9,7-5.6c3.2-3.7,4.8-6,4.6-6.8l2.6,0.7c0.7,0,1.6-0.3,2.6-0.9c1-0.6,1.9-1.2,2.6-1.9
		c-0.6-0.7-1-1-1.3-1c-0.4,0-1,0.2-1.8,0.5c-0.7,0.3-1.5,0.5-2.2,0.5l0.7-2h7.3c0.9,0.3,1.5,0.5,2,0.5c0.6,0,1.4-0.1,2.3-0.2
		c1-0.2,2.1-0.2,3.4-0.2c-0.4,0.8-1.6,1.6-3.6,2.2c-2,0.7-3.3,1.1-3.8,1.2c-0.4,0.2-1.5,0.5-3.3,1c-1.8,0.5-3.5,1.2-5.3,2.1
		c-1.8,0.9-3.1,2-4,3.3h1.1c1.5,0,2.6-0.4,3.3-1.2v1.2c0,2.3-2.2,4.3-6.7,6.1C640.7,39,636.4,39.9,632.5,39.9z M645.7,39.6
		c2.2-0.7,4.3-1.6,6.4-3c2.1-1.3,4.5-3.1,7.5-5.4c3.7-3.3,6.9-5.6,9.7-6.9c1-0.5,2.1-0.8,3.2-0.9c1.1-0.1,2.1-0.5,3-1.1
		c0,1.2-0.1,2-0.3,2.5c-0.2,0.5-0.8,1-1.9,1.4c-1,0.4-1.8,0.8-2.4,1.1c-0.3,0.2-3.2,3-8.7,8.4c-5.5,5.4-10.3,8.9-14.4,10.4
		c-0.1,0-0.3-0.2-0.6-0.5c-0.2-0.3-0.3-0.6-0.3-0.7l4.2-5.2c-0.4,0-1.1,0.2-2.1,0.6c-1,0.4-1.6,0.9-2.1,1.4L645.7,39.6z M657.1,46.6
		c-0.4,2.1-0.8,3.2-1.1,3.2l-8.6,4.7c-0.4,0-0.7-0.3-0.7-1c0-1.6,1.4-2.8,4.2-3.5c0.3-0.2,0.8-0.4,1.4-0.6s1.3-0.6,1.9-1
		c0.6-0.4,1-1,1.1-1.9c-0.7,0-1.4,0.2-2,0.6c-0.6,0.4-1.1,0.6-1.5,0.6c-0.1,0-0.3-0.1-0.6-0.4c-0.2-0.2-0.3-0.5-0.3-0.9
		c5.9-2.8,11.4-6.7,16.5-11.6c-0.1,0.2-0.2,0.6-0.2,1.2c0,1,0.4,1.6,1.1,1.7c-0.6,1-1.9,2.4-4.1,4.3c-2.1,1.9-3.6,3.1-4.5,3.6
		l-2.9-0.7L657.1,46.6z M659.4,64.9c2.4-0.8,4.2-1.7,5.4-2.7c0,1.8-1.9,4.3-5.7,7.4c-3.8,3.1-6,5-6.6,5.4c-0.4,0.7-1.3,1.7-2.5,3
		c-1.2,1.3-1.9,2.1-1.9,2.5c0.1,0.2,0.3,0.4,0.6,0.7c0.2,0.3,0.4,0.6,0.5,0.7c1.2,0,2.7-0.5,4.5-1.4c1.8-0.9,3.3-1.5,4.3-1.9
		c0,1.2-1.7,3-5,5.6c-3.3,2.6-5.2,4.1-5.6,4.6l-0.7-19.8c0.1-0.2,1.1-1,2.9-2.6c1.8-1.6,3.1-2.4,4-2.4v2
		C655.1,66.1,657,65.7,659.4,64.9z M652.3,62.3c-1.8,1.2-3.7,1.9-5.7,1.9c0-3.1,1.6-5.5,4.7-7.2c3.2-1.6,6.4-2.5,9.8-2.5
		c-0.9,0.8-2.1,2-3.7,3.6C655.7,59.7,654,61.1,652.3,62.3z M649.2,88.9c0.7-0.7,2.9-2,6.4-4c4.4-2.5,7.8-4.6,10.1-6.4
		c2.3-1.8,3.5-2.7,3.5-2.7s0-1.1,0-3.2c0-0.5-0.4-0.9-1.1-1.1c-0.7-0.2-1.2-0.4-1.5-0.4l-13,6.9c3.2-4.5,5.9-7.4,7.9-8.9
		c0.3-0.7,1.2-1.4,2.7-2.1c1.5-0.7,2.6-1.4,3.2-1.9c0.6-0.5,0.9-1.2,0.9-2l-0.2-2.5c-1.6,0-3.9,0.5-6.8,1.5
		c-3.2,0.8-5.4,1.2-6.4,1.2c0-0.8,0.6-1.7,1.8-2.7c1.2-1,2.6-1.9,4.4-2.8c1.8-0.9,3-1.7,3.7-2.4l4.4-5c-0.3-0.7-0.9-1-1.8-1
		l-0.9,0.2l-12.3,4.7h-2.4c1.3-0.3,3-1.2,5.2-2.6c2.1-1.4,3.4-2.3,3.8-2.6c4-3.1,6.6-4.7,7.9-4.7c1,0,2,4.5,2.9,13.5
		c0.9,9,1.3,16.1,1.3,21.4c-2.2,0-4.3,0.5-6.4,1.6c-2.1,1.1-4.5,2.6-7.3,4.6c-2.5,1.7-4.5,2.8-5.9,3.6c-1.5,0.7-2.9,1.1-4.2,1.1v2.2
		c4.5-1.2,7.5-2.8,8.8-5v1.2c2.9-2.1,5.2-3.2,6.8-3.2c-0.7,1.2-3.8,4.1-9.1,8.8c-5.4,4.7-8.5,7.1-9.3,7.1
		C646.3,95,647.3,90.8,649.2,88.9z M646.8,105.5c1.5,0,4-0.5,7.5-1.5c3.2-1,5.9-1.5,7.9-1.5c-1.9,1-3.7,2.2-5.3,3.7
		c-1.6,1.5-3.2,3.1-4.6,4.7l-4,4.2l-1.5,1V105.5z M647.7,131.8c-0.3-1.6-0.4-3.6-0.4-5.8c0-2.2,0-3.9,0-5.1c0-1.5,0.5-2.6,1.6-3.3
		c1.1-0.7,2.5-1.3,4.3-1.6c1.8-0.3,3.1-0.6,4-0.7l8.6-4c-0.7,1-2.8,2.8-6.2,5.4c-2.6,2-4.7,3.8-6.2,5.3c-1.5,1.6-2.2,3.3-2.2,5.3
		c0.1,0,0.5-0.1,1-0.2c0.5-0.2,1.1-0.2,1.6-0.2c0.9,0,1.4,0.3,1.5,1c0.4-0.8,1.3-1.5,2.5-2c1.2-0.5,2.1-0.8,2.5-1
		c-0.1,1.5-0.8,2.8-1.9,3.8c-1.1,1.1-2.7,2.4-4.7,3.8c-2.3,1.7-3.9,3-4.6,4C648.5,135,648,133.4,647.7,131.8z M649.2,143.8
		c-0.1-0.6-0.2-1.2-0.2-1.9c0-1.3,1.2-2.5,3.5-3.6c2.3-1.1,4.4-1.7,6.2-1.9l0.2,0.7c0,0.7-1.3,2-4,4.1c-2.6,2.1-4.3,3.4-4.8,4.1
		C649.6,144.9,649.3,144.4,649.2,143.8z M650.1,149.6c1.8,0,3.6-0.4,5.5-1.2c2.1-0.7,3.8-1,5.3-1c0,0.8-0.5,1.7-1.6,2.5
		c-1.1,0.8-2.6,1.7-4.5,2.7c-1.9,1-3.4,1.9-4.6,2.7V149.6z M675.4,110.2c-0.6,0-0.9,3.5-0.9,10.4c0,1-0.1,2.8-0.2,5.3
		c-0.1,2.6-0.4,3.8-0.7,3.8v17.6c0,0.5-1.8,1.4-5.5,2.7c-5.9,2.1-8.8,3.8-8.8,5c0.9,0,2.3-0.3,4.2-0.9c1.9-0.6,3.2-0.9,4-0.9
		c-0.4,0.3-0.9,0.8-1.4,1.4c-0.5,0.6-0.9,1.1-1.2,1.6c0.3,0.3,0.5,0.7,0.7,1.2c0.1,0.5,0.4,0.9,0.7,1.2c0.3,0.3,1,0.5,2,0.5
		c1.3,0,2.1-0.2,2.4-0.7c0.3-0.5,0.5-1.2,0.6-2c0.1-0.8,0.4-1.2,1-1.2c0.4,0,0.9,0.1,1.3,0.2c0.4,0.2,0.7,0.4,0.9,0.7
		c-0.4,0.3-0.7,0.6-0.7,0.7c0,0.8,0.3,2.1,0.9,4c0.6,1.8,0.9,3.2,0.9,4.2c-1.5-0.2-3.7-0.5-6.7-1.1c-3-0.6-5.8-1.3-8.2-2.1
		c0.6,0,1.2-0.2,2-0.5c0.7-0.3,1.2-0.7,1.5-1.2c-0.1-0.8-0.7-1.2-1.8-1.2c-1.5,0-2.5,0.2-3,0.7c-0.5,0.5-1.1,1.3-1.9,2.5
		c-0.4,1-0.9,1.7-1.4,2.1c-0.5,0.4-1.3,0.6-2.3,0.6c-0.9-0.2-1.4-0.4-1.6-0.7c-0.2-0.3-0.3-0.5-0.3-0.5s0-0.4,0-1.2
		c0-0.7,0.3-1.4,1-2.1c0.7-0.7,1-1.4,1-2.1c0-1.2-0.4-1.8-1.1-2c-0.1,0,1.3-0.9,4.4-2.7c4-2.5,6.9-4.4,8.8-5.7
		c1.9-1.3,2.9-2.6,2.9-3.7c0-0.5-0.3-1-1-1.6c-0.7-0.6-1.3-0.9-1.9-0.9c-0.4,0.3-1,0.8-1.5,1.5c-0.6,0.7-0.9,1.1-0.9,1.2
		c0-0.2-0.1-0.4-0.4-0.6c-0.3-0.2-0.5-0.4-0.7-0.4c-1.2,0-2.8,0.5-4.8,1.5c-2.3,1-4.2,1.5-5.5,1.5c1-0.8,2.4-1.9,4.1-3.1
		c1.7-1.2,3-2.2,4.1-2.8c7.2-4.1,10.8-7,10.8-8.7c0-1-0.1-1.6-0.4-1.7c-0.3-0.2-0.8-0.2-1.5-0.2c-1.6,0-3.3,0.4-5.1,1.1
		c-1.8,0.7-3.7,1.7-5.8,3c-2.1,1.2-3.6,2.1-4.3,2.6c0-1,1.8-2.6,5.5-5c3.2-2.3,5.7-4.3,7.5-5.9c1.8-1.6,2.7-3.4,2.9-5.2
		c-2.2,0-4.6,0.6-7.3,1.7c-2.3,1-4.4,1.6-6.2,1.7v-1c1.9-1.3,3.7-2.6,5.4-4c1.7-1.3,2.8-2.2,3.4-2.7c0.9-0.8,2-1.7,3.4-2.6
		c1.4-0.9,2.6-1.8,3.6-2.7c1-0.9,1.8-2.1,2.4-3.6l1.8,2L675.4,110.2z M674.5,101.8c0,3.5-0.8,5.2-2.4,5.2c-0.4,0-1.1-0.2-2-0.7
		l-18.3,7.9c1.2-1.2,3.2-2.6,5.9-4.2c3.8-2.6,6.6-4.7,8.5-6.3c1.8-1.6,2.7-3.2,2.7-4.8c-2.3,0-5.4,0.7-9.2,2c-0.4,0.2-1.5,0.5-3.3,1
		s-3.6,0.7-5.5,0.7v-1.2c1.9-1,4.2-3,6.8-5.9c2.2-2.3,4-4,5.3-5c1.3-1,2.8-1.5,4.4-1.5c0.7-0.7,1.7-1.7,3-3.2
		c1.2-1.5,1.9-2.7,2.1-3.7c0.4,1,0.8,2.4,1.2,4.2c0.4,1.8,0.5,3.3,0.5,4.5c0,0.5-0.1,1.2-0.4,2c-0.3,0.8-0.4,1.8-0.4,3
		c0,1.2,0.2,2.2,0.5,3.2C674.3,99.8,674.5,100.8,674.5,101.8z M672.5,33.9c0-1.5,1-3.1,2.9-5c0.1-0.3,0.7-1,1.5-2
		c0.9-1,1.3-2.1,1.3-3.5l-0.2-1.2l12.1-1v1L672.5,33.9z M678,38.9h-1.1c0.6-1,3.8-4,9.8-9c5.9-5,9.1-7.6,9.3-7.6
		c1.2-0.3,3-0.5,5.5-0.5c0,1.2-2.7,3.2-8.1,6.2c-1.8,1-3.5,2-5.2,3.1c-1.7,1.1-2.8,2-3.4,2.8v-1L678,38.9z M683.1,39.6
		c-0.3,0-0.6-0.1-0.9-0.2c-0.3-0.2-0.5-0.3-0.7-0.5c0.1-0.2,1.8-1.2,4.8-3c5.4-4,8.9-5.9,10.6-5.9c-1.6,2.5-3.8,4.7-6.5,6.7
		C687.7,38.7,685.3,39.6,683.1,39.6z M691.9,38.9c1.2-2,3.2-4.1,6.2-6.3c2.9-2.2,5.4-3.8,7.5-4.6c-0.1-0.2-0.2-0.4-0.2-0.7
		c0-1,0.6-2,1.8-3.1c1.2-1.1,2.2-1.6,3.1-1.6V28c-1.2,0.8-3.6,2.3-7.1,4.5C699.4,34.6,695.7,36.8,691.9,38.9z M710.6,38.9l-12.8-1
		c1.8-0.7,4.1-1.7,6.9-3.1c2.9-1.4,4.8-2.6,5.8-3.6V38.9z"/>
	<path class="st0" d="M540.8,140.2c0-4.6-0.3-8.1-0.9-10.4c-0.3-1.3-0.8-2.6-1.6-3.7c-0.8-1.2-1.2-2.9-1.2-5.2l-0.7-9.7
		c-0.4-0.3-1.1-3.4-2-9.2c-0.9-5.8-1.4-9.2-1.5-10.4l-0.9-5.9c-1.6-8.8-2.4-17.3-2.4-25.5c0-2-0.4-4.6-1.3-7.9
		c-0.9-3-1.3-5.3-1.3-6.9c0-1.6-0.4-4.1-1.1-7.4c-1.3-6.3-2-12.1-2-17.6c0-6.1,0.7-10,2.2-11.6c-2.1-0.7-4.5-1.2-7.4-1.6
		c-2.9-0.4-5.2-0.6-6.9-0.6c-1.8,0-4.5,1-8.4,3c0.3,0.8,0.9,1.2,1.8,1.2c0.9,0,1.8-0.4,2.6-1.2v1.7h8.6c1,1,2.5,1.5,4.4,1.5
		c0,1.3-0.1,3.3-0.4,5.9c-0.3,2.6-0.4,4.7-0.4,6.2c0,0.7,0,1.5,0.1,2.4c-3.3,0-6,0.1-7.9,0.4c-2,0.2-3,0.9-3,1.9h6.2v1.2
		c-0.3,0.4-0.6,0.7-1,0.9c-0.7,0.3-1.4,0.5-2.3,0.6c-0.9,0.1-1.6,0.3-2.2,0.6l3.5,0.2c2.4,0,3.8-0.4,4.1-1.1c0.5-0.3,1-0.6,1.4-1.1
		c0.7-0.9,1.1-1.9,1.3-2.9c0.1,1.5,0.4,3.3,0.7,5.4c0.1,0.7,0.2,1.4,0.3,2c-0.4,0-8.8,1.7-10.4,2.1c-1.6,0.4-3,0.6-4.2,0.6
		c0,1-0.4,1.9-1.3,2.8c-0.9,0.9-1.8,1.5-2.6,1.9v-1l-3.7,0.5l-9.2,4.5l1.8,0.2c1.2,0,2.8-0.5,4.8-1.4c2.1-0.9,3.1-1.4,3.1-1.4
		c1.8,0,6.2-1,8.6-2.5c2.5-1.1,10.5-4.4,13.4-5.4c0.3,2.4,0.5,4.3,0.5,5.6c0,3.5-1.3,6.5-4,9c-2.6,2.6-6.4,5.3-11.2,8.3
		c-0.6,0.5-2,1.5-4.2,3c-2.2,1.5-3.9,2.9-5.1,4.2c-1.3,0.5-3.8,0.7-7.5,0.7c-2.9,0-5.9-0.7-9-2c0.6-0.1,1.1-0.2,1.5-0.4
		c3.7-0.9,12.8-3.3,15.1-4.6c2.9-1.6,5.7-2.1,13.7-9.7c0,0,3-3.1,6.8-3.7l0.2-1h-6.2c0-0.3-0.1-0.7-0.4-1c-0.3-0.3-0.5-0.5-0.7-0.5
		c0,1.2-0.3,2.2-0.9,3.2c0,0,0,0.1-0.1,0.2c-0.5,0.1-0.9,0.3-1.4,0.5c-2.1,1-3.3,2.4-3.9,3.4c-0.1-0.2-0.3-0.5-0.5-0.7
		c-0.6-0.8-1-1.4-1.1-1.7c-0.9,0.3-1.7,0.8-2.5,1.5c-0.8,0.7-1.2,1.4-1.2,2.2c0,0.5,0.1,0.8,0.2,1c-0.7-0.2-1.1-0.7-1.1-1.7l0.2-1
		c-0.6,0.3-2.1,0.9-4.6,1.6c-2.5,0.7-3.7,1.5-3.7,2.4h1.5v2c0.7-0.5,1.6-1.2,2.6-2c1-0.8,1.9-1.2,2.6-1.2c-1.3,1.5-2,2.5-2,3
		c0,0.5,0.3,0.8,0.9,1c0.2-0.1,0.9-0.3,1.8-0.6c-1,0.8-2.9,1.8-6.1,2.8c-3.2,0.5-6.9,1.9-11.1,3.2c0.5-0.8,1.1-1.8,1.5-3
		c0.3-0.3,0.9-0.6,1.9-0.9c1-0.2,1.7-0.4,2.3-0.4v-2c-0.7,0-1.7,0.3-2.7,0.9c-0.3,0.1-0.5,0.3-0.7,0.4c0.8-2.4,1.5-5.2,2.1-8.7h0.9
		l3.5-7.9c0.4-0.7,1-1,1.5-1c0.4,0,0.9,0.1,1.3,0.2c0.4,0.2,0.9,0.2,1.3,0.2s0.8-0.1,1.1-0.2c0.7-0.3,1.7-0.6,3-0.7
		c1.2-0.2,2.3-0.5,3.2-0.9c0.9-0.4,1.4-1.2,1.5-2.4c-2.3,1.3-4.1,2-5.3,2c-0.1,0-1.9-0.7-5.3-2l2.9-5.9l1.8-2
		c0.7-1.5,2.1-2.7,4.2-3.7c2.1-1,4.7-2.1,7.9-3.2c3.7-1.3,6.3-2.4,7.9-3.3c1.6-0.9,2.4-2.1,2.4-3.6c-1.3,0-2.7,0.2-4.2,0.7
		c-1.5,0.5-2.4,0.9-2.9,1.2h2.6c-0.3,0.7-2.8,2-7.4,4c-4.6,2-8,3-10,3c0-0.2,0.2-1.4,0.5-3.6c0.4-2.2,1.4-3.3,3-3.3h9.5l1.1-0.7
		c-3.7,0-6.6-0.4-8.8-1.2c0.9,0,1.9-0.2,3-0.7c1.1-0.5,1.6-1.2,1.6-2c-0.7,0-1.8,0.2-3.1,0.5c-1.3,0.3-2.4,0.5-3.3,0.5
		c0.3-0.3,0.5-0.9,0.7-1.9c0.1-0.9,0.2-1.6,0.2-2.1c0-0.3-0.1-0.8-0.3-1.4c-0.2-0.6-0.4-1-0.6-1.4l-0.9,0.7l-6.2,12.9L490.4,31
		c-0.1,0-0.7,0.8-1.8,2.4c-1,1.6-1.9,3-2.6,4.3c-0.6,1.3-2.1,4.9-4.4,10.7c-2.9,7.9-5.5,14.2-7.8,18.9c-2.3,4.7-4.4,7.1-6.3,7.1
		c-2.5,0-4.4-0.8-5.6-2.5c-1.2-1.6-2.6-4.3-4.1-7.9c-0.9-2.6-1.6-4.5-2.2-5.7c-0.6-1.2-1.8-2.4-3.7-3.7c-2.2-1.5-3.3-2.8-3.3-4
		c-1.3-1.3-3-4.2-4.9-8.7c-2-4.5-3-7.8-3-9.9c-4.8-10.9-8.7-18.7-11.4-23.5c-1.5,0.3-2.6,0.5-3.5,0.5c-1.3,0-2.5-0.1-3.5-0.2
		c-1-0.2-1.9-0.2-2.6-0.2c-1.2,0-2.3,0.1-3.3,0.4c-1,0.2-2.1,0.4-3.1,0.4c-1.8,0-3.2,2.1-4.4,6.3c-1.2,4.2-2,8.6-2.5,13.1
		c-0.5,4.5-0.8,7.6-1,9c-0.7,5.3-1.5,9.7-2.2,13.1c-2.5,13-3.7,23.5-3.7,31.2c0,4.1-0.7,10.2-2.2,18.1c-0.1,1-0.5,3.3-1.1,6.9
		c-0.6,3.6-0.9,7-0.9,10.2c0,4.1-0.3,8.3-0.9,12.4c-0.6,4.1-1.5,9.1-2.6,14.9c-1.5,6.9-2.4,12.1-2.9,15.6l1.8-1.7
		c0,1.2-0.4,2.9-1.3,5.2c-1,2.3-1.5,4.1-1.5,5.4c0,2.1,1.5,3.2,4.6,3.2l23.3-0.5c0.4-0.2,1.2-0.3,2.2-0.4c1-0.1,2-0.5,2.9-1.2
		c0.9-0.7,1.3-2.2,1.3-4.3l-0.2-2.7l4.4-24.5c-0.1-0.5-0.2-1.2-0.2-2.2c0-3.8,1.2-10.2,3.7-19.3c2.3-9.2,3.5-15.4,3.5-18.3
		c0-1.2-0.1-3.1-0.4-5.7c-0.4-2.5-0.7-5.3-0.7-8.4c0-6.1,0.6-10.9,1.8-14.4c2.2,2.8,4.1,7.2,5.7,13.1c1.5,4.6,2.8,8,4,10.2l3.3,7.4
		c3.8,9.1,7,16.3,9.7,21.8c2.6,5.4,4.5,8.2,5.7,8.2c0.7,0,1.6-0.8,2.5-2.4c1-1.6,1.5-2.8,1.7-3.6l-1.3,0.2c-1.9,0-3.8-2-5.6-5.9
		c-1.8-4-2.7-8.6-2.7-13.9c3.8,0,7.2-1,10.1-3v1c1.5-0.2,3.4-0.7,5.9-1.7c2.5-1,4-2,4.4-3c-1.3,0-4,0.6-8.1,1.7
		c-3.5,1.3-6.3,2-8.4,2c0-0.2-0.1-0.4-0.3-0.6c-0.2-0.2-0.6-0.4-1-0.4c-1,0-2.3,1-3.7,3c-0.6-0.5-1.1-1.3-1.7-2.4
		c-0.5-1.1-0.8-1.9-0.8-2.6c0-0.7,1.5-1.4,4.4-2.2c4.1-1.5,6.2-2.7,6.2-3.7c-2.2,0-3.8,0.7-4.8,2l-0.7-0.7c-3.7,1-5.8,1.5-6.4,1.5
		c0-0.3,0.1-0.7,0.3-1c0.2-0.3,0.5-0.5,0.8-0.5l15-7.9c0.9-0.7,1.7-1.5,2.4-2.5c0.7-1,1.1-2.1,1.1-3.5c0-0.8-0.1-1.5-0.2-2
		c0.7-0.3,1.9-0.5,3.4-0.6c1.5-0.1,2.5-0.2,2.7-0.4c0-1-0.6-1.5-1.8-1.5c0-1.8,0.4-3.8,1.3-5.9c0.9-2.1,2.1-3.2,3.7-3.2l11.2,2
		c0.1,0.2,0.4,0.5,0.7,1.1c0.3,0.6,0.6,0.9,0.9,0.9c0.3,0,0.6-0.1,0.9-0.4c0.3-0.2,0.6-0.4,0.9-0.4c0,1-0.6,2.2-1.8,3.6
		c-1.2,1.4-1.8,2.4-1.8,3.1c0,0.5,0.1,0.8,0.2,1l-8.1,5c-3.8,2.4-6.4,4.1-7.9,5c-1.6,0.1-3.4,0.4-5.5,0.7c-3.8,0.6-5.7,1.6-5.7,3.1
		h5.7l-8.6,4.7v2c1.2-0.5,4-2.1,8.5-4.8c4.5-2.7,7.5-4.7,9.1-5.8c-0.1,0-0.1,0-0.2,0c0.1,0,0.1-0.1,0.2-0.1c2.4-1.3,4.1-2.3,4.9-3
		l1.8,0.2c0.4,0,0.9-0.5,1.3-1.6c0.4-1.1,1.1-1.6,2-1.6c-0.1,3.8-1,7.3-2.4,10.4c-1.5,3.1-3.6,5.5-6.4,7.2c-0.1-0.2-0.4-0.3-0.8-0.5
		c-0.4-0.2-0.7-0.2-1-0.2c-0.3,0-0.6,0.4-1,1.1c-0.4,0.7-0.6,1.3-0.8,1.6l-3.8,2.8v-0.3c-0.7,0-2.2,1.1-4.5,3.2
		c-2.3,2.1-3.4,3.6-3.4,4.5c0,0.8,0.2,1.6,0.7,2.2c0.4,0.7,1,1,1.5,1c0.6,0,1.3-0.2,2.1-0.7c0.8-0.5,1.2-1,1.2-1.5
		c0-1-0.6-1.5-1.8-1.5v-1.2l2.8-2.6c0.5-0.2,1.2-0.5,2.1-0.9c1.5-0.7,2.5-1.4,3.1-1.9c0,0.7-1.1,3.9-3.3,9.8
		c-2.2,5.9-3.7,8.8-4.4,8.8h-0.9c-0.6,1.2-1.2,2.6-2,4.3c-0.7,1.7-1.2,2.7-1.5,2.8c0,1.8,0.7,2.7,2.2,2.7c1,0,2.5-1.5,4.5-4.6
		c2-3.1,3.8-6.4,5.5-10.2c1.7-3.7,2.5-6.3,2.5-7.8c1-2,3.1-5.1,6.2-9.4c2.6-3.6,4.4-6.4,5.3-8.2c0.6-1.2,1.1-2.6,1.6-4.2
		c0.5-1.6,1-3.1,1.4-4.5c2.3-7.4,3.8-11.1,4.4-11.1c0.4,0,1,1.4,1.8,4.2c0.7,2.8,1.5,6.9,2.3,12.3c0.8,5.4,1.4,8.7,1.7,10
		c1,7.3,1.8,11.9,2.4,13.9c0.6,4,1,9.1,1.1,15.4c0.6,12.1,1.5,21.6,2.6,28.7c1.2,7.1,3.3,10.7,6.4,10.7c4.3,0,9.1,0.4,14.5,1.2
		c5.9,0.7,10,1,12.3,1c1,0,1.5-2.1,1.5-6.2v-2C543.2,147.5,541.6,140.2,540.8,140.2z M461,80.3c0.2,0.2,0.5,0.3,0.8,0.5
		c-0.4,1-1.3,1.8-2.5,2.4c-1.2,0.6-2.6,1-4.2,1.4c-1.5,0.3-2.6,0.6-3.2,0.7c0-0.3,1.1-1.3,3.4-3c2.3-1.6,4-2.5,5.2-2.5
		C460.6,79.9,460.8,80.1,461,80.3z M455.6,70.9c1.2,0,1.8,0.9,1.8,2.7c0,0.2-1.4,0.8-4.2,1.9c-2.8,1.1-4.5,1.6-5.3,1.6l-1.1-0.2
		c1-1.3,2.4-2.6,4.2-4C452.8,71.5,454.3,70.9,455.6,70.9z M451.2,60.5c0,1,0.1,1.7,0.4,2.2c0.3,0.5,0.4,0.9,0.4,1.2c0,1-1,1.7-3.1,2
		c-2.1,0.3-3.9,0.5-5.5,0.5v-2c1.5,0,2.8-0.7,4.1-2C448.8,61.1,450.1,60.5,451.2,60.5z M414.1,33.5c3.8-1,7.8-1.5,12.1-1.5h0.9
		c0,0.7-0.2,1.2-0.7,1.6c-0.4,0.4-0.9,0.6-1.3,0.6c-0.3,0-0.5-0.1-0.7-0.2c-1.2,0.2-2.6,0.6-4.3,1.4c-1.7,0.7-2.9,1.3-3.6,1.6
		c-3.8,2-6.5,3-8.1,3C408.3,36.6,410.2,34.4,414.1,33.5z M429.9,56.7c-3.1,0-6.2,1-9.5,3v-3l4-1.2v-2c-0.4,0-1.1,0.2-1.9,0.5
		c-0.6,0.2-3.1,1.7-4.5,2.7c-0.3,0.1-0.5,0.2-0.8,0.4c-2,0.9-3.1,1.8-3.4,2.6c0.7,0,1.6-0.2,2.5-0.6c1-0.4,1.9-0.6,2.7-0.6
		c-1.8,1.3-2.9,2.3-3.5,3l3.5-1c0.1,0,0.3,0.1,0.6,0.4c0.2,0.2,0.3,0.5,0.3,0.6l6.2-1.7l-1.8,2.7c0,0.7,0.3,1,0.9,1
		c1.3,0,2.7-0.7,4.2-2.1c0.2-0.2,0.5-0.4,0.9-0.5c0,0.3,0,1.7,0,4.1c0,6.6-1.1,10.3-3.3,11.1v-1.2c-0.6,0.5-1.5,1.3-2.7,2.4
		c-0.1,0.1-0.3,0.2-0.4,0.3c-0.6-0.1-1.2-0.2-1.7-0.2c-0.7,0-1.6,0.1-2.5,0.2c-1,0.2-1.6,0.3-1.9,0.5v1.2l1.1,0.7
		c-0.6,0.6,1.8-0.6,3.1-1.2h1.5v1.7l0.9,0.2c0.3-0.3,1-0.7,2.2-1.2c1.2-0.5,1.8-0.8,2-1v5.2l-1.5-1c-0.1,0.2-0.4,0.5-0.7,1
		c-0.2,0.3-0.3,0.6-0.4,0.7l-2.6,1.5v1c0.9,0,1.7-0.2,2.4-0.7c0.3-0.2,0.5-0.4,0.7-0.7c0.3,0.2,0.8,0.2,1.4,0.2v3
		c0.6,0.2,0.9,0.8,0.9,2c0,1.5-0.1,3.1-0.1,4.8c-3.1,1.2-7.8,3.3-10.5,4.4c-1.3,0.5-2.5,0.8-3.2,1.5l0.7,1l-0.7,1
		c1-0.2,2.4-0.6,4.2-1.2c1.8-0.7,2.6-1.2,2.6-1.7l0.9-1.4c2.6-1.3,4.6-2.2,6-3c-0.1,1.7-0.3,3.5-0.5,5.3c-0.4,3.8-0.7,6.3-0.9,7.4
		c-0.6,3.5-1,6.3-1.1,8.4c0,0.5-0.2,1.4-0.6,2.7c-0.4,1.3-0.6,2.6-0.6,3.7l0.2,1.2c-1,0.5-1.8,2-2.2,4.6c0,0.2-0.1,0.4-0.1,0.6
		c-0.2-0.2-0.4-0.4-0.7-0.5c-0.7-0.3-1.4-0.5-2.3-0.5c-1.8,0-2.6,0.5-2.6,1.5c0,0,0,0,0,0c-7.5,2.7-8.6,3.7-9.5,5.2l9.6-3.3
		c0.1,0.6,0.3,1.1,0.5,1.5c0.7-0.2,1.6-0.7,2.5-1.6c0.7-0.7,1.5-1.1,2.3-1.3c-0.2,1.5-0.4,3.3-0.6,5.4l-14.3,8.9
		c-0.9,0.5-1.9,1-3.1,1.4c-1.2,0.4-2.2,0.6-3.1,0.6c-0.3-0.2-0.6-0.4-0.9-0.6c-0.3-0.2-0.6-0.5-0.9-0.6c-1.9,2.1-2.9,3.6-2.9,4.2
		c1.2,0,1.8-0.3,2-1l0.9,0.7l7-2.7c1,0,11.2-6.4,12.9-7.3c0.8-0.4,1.5-0.9,2.1-1.3c-0.1,0.7-0.1,1.4-0.2,2.2c-0.3,4-0.6,6.4-0.9,7.2
		c-0.3,1-1.2,1.8-2.7,2.4c-1.5,0.6-2.6,1.2-3.3,1.7c-0.4,0.3-0.6,0.7-0.8,1.3c-0.7,0.5-1.5,1.2-2.4,2.2c0.3-0.3,0.9-0.5,1.9-0.6
		c0.1,0,0.2,0,0.3,0c0,0,0,0,0,0l0.1,0c0.7-0.1,1.1-0.2,1.1-0.3v-0.1l0.6-0.3c1.2-1.3,2.3-2,3.5-2c-0.1,1.5-0.8,3.4-2,5.8
		c-1.2,2.4-1.9,4-2.2,4.8h2.6c0,1-0.3,1.9-0.8,2.7c-0.5,0.8-1.1,1.2-1.9,1.2c-1,0-1.6-0.3-1.8-1l-1.1,0.7H400c0.1,0,0.4-0.2,0.9-0.7
		c1.2-0.7,2.9-1.3,5.3-2v-2l-3.1-0.5c-1.8,0-3.1,0.4-4.1,1.2c-1,0.8-2,1.9-3.1,3.2c-1.1,1.3-2.1,2-3,2c0-4,0.3-6.6,0.9-7.9
		c0.4-0.5,3-1.8,7.6-3.8c4.6-2.1,7.4-3.1,8.2-3.1l-0.9-1.7h2.9c0-1,0.3-1.8,0.9-2.4c0.6-0.6,1.5-1.3,2.9-2.1c1.9-1,3.2-2.1,3.7-3.5
		h-0.9c-1.2,0.8-3.8,2.4-7.8,4.8c-4,2.4-6,4-6,4.8l-9.5,4c-0.1-0.2-0.4-0.5-0.7-0.9c-0.3-0.4-0.4-0.9-0.4-1.4
		c0.3-1.6,0.8-4.1,1.6-7.3c0.8-3.2,1.4-5.6,1.9-7.1c0.9-0.5,2.2-1.2,4-2.2c1.8-1,3.4-1.8,4.8-2.5v-1.2c-0.7,0.8-1.9,1.2-3.5,1.2
		v-1.2l19.7-10.9v-1c-13.8,6-8.2,4.4-14.9,8c-0.8,0.4-1.6,0.6-2.2,1c-0.3,0.2-1.8,1.1-3.2,2.2c-1,0.2-2.3,0.8-3.6,1.9
		c-0.3,0-0.6-0.1-0.8-0.4c-0.2-0.2-0.3-0.5-0.3-0.9c0-1.5,0.6-2.6,1.8-3.5c1.2-0.8,2.9-1.6,5.3-2.5c2.9-1.2,4.7-2.1,5.3-3l-0.9-0.7
		c1.7-1.7,3.9-3.7,4.9-4.3c1.8-1.1,3.6-2.2,5.2-3.5c1.5-1.2,2.7-2.7,3.6-4.5l2.5-0.7c-0.1-0.7-0.7-1-1.8-1c-0.6,0-1,0.1-1.3,0.4
		c0,0,0,0-0.1,0.1l-0.1-0.1c-0.4,0.7-2.6,2.5-6.4,5.4c-3.4,2.5-9,7.2-10.8,9.1c-0.1,0-0.2,0-0.2,0v-2c-0.4,1-1.2,2-2.2,3
		c-1,1-2.1,1.5-3.1,1.5l-0.9-1.5c0-3.8,0.4-6.4,1.2-7.9c0.8-1.5,2.5-2.2,5.2-2.2c1.9,0,3.3-1.1,4.1-3.4c0.1,0,0.2-0.1,0.3-0.1
		c1.5-0.6,4.3-3.3,5.5-4.5c1.6-0.3,1.7-0.3,3.8-1.1c1.2-0.5,2.1-0.9,3.5-2.1c1.5-1.2,2.2-2.6,2.2-4.2c-1.2,0.7-2.5,1.5-3.8,2.6
		c-1.2,0.9-5.5,3.7-7.7,4.8c-0.4,0.1-0.9,0.3-1.4,0.5c-1.8,0.7-2.9,1-3.5,1l-2.5,3h-0.6c-2.2,0-4,0.6-5.3,1.7c0-3.6,0.1-6.1,0.3-7.3
		c0.2-1.2,0.8-2.1,1.9-2.5c1-0.4,2.9-0.6,5.7-0.6v-1.2h-1.1c0-0.3,0.2-0.8,0.5-1.5c0.2-0.3,0.3-0.5,0.4-0.8l8.1-3.4
		c0.7,0,1.6-0.4,2.6-1.2c1-0.8,1.8-1.2,2.4-1.2v-1.7c-1,0-2.1,0.4-3.3,1.2c-1.2,0.8-11.2,6.2-12.2,7.4c-0.3,0.2-0.6,0.4-1,0.5
		c-1.3,0.7-2.2,1-2.6,1c0-5.4,0.9-8.8,2.6-10.2v1c1.2,0,3.7-0.7,7.7-2.2s5.9-2.6,5.9-3.5h-4v-1c0.7-0.5,2.3-1.4,4.8-2.8
		c2.5-1.4,3.7-2.4,3.7-3.1v-1c-2.5,0-4.5,1.3-6.2,4l-0.7-1c-0.6,1.2-1.6,2.2-3.1,3.1c-1.5,0.9-3,1.7-4.6,2.4c-2.3,1-3.9,1.8-4.6,2.5
		c0-1.5,0.1-3.2,0.4-5.1c0.3-1.7,0.4-3.1,0.4-4.4c2.2-0.3,5-1,6.8-1v-2.5l-0.7-0.7c5.1-2.4,10.7-5.5,14-8.4c0.4-0.1,0.7-0.3,1.2-0.4
		c0.9-0.2,1.6-0.7,2.2-1.2c0.6-0.6,0.9-1.6,0.9-3.1c-1.3,0-2.5,0.5-3.6,1.4c0,0-0.1,0.1-0.1,0.1c-1.3,0.4-2.8,0.9-3.6,1.4l-1.6-1.8
		c-0.4,0.3-1.2,1.1-2.3,2.2c-1.1,1.2-2.4,1.7-3.8,1.7c-0.6,0-1-0.1-1.3-0.2c-2.2,1-3.4,2.3-3.5,4c1.2,0,2.1-0.2,2.6-0.5
		c0.6-0.3,1.1-0.5,1.5-0.5c0.3,0,0.6,0.1,0.8,0.2c0.2,0.2,0.3,0.4,0.3,0.7l0.9-0.4c-1.4,0.9-3,1.8-4.9,2.9c-1.4,0.7-3.6,2-5.5,3.2
		c0.8-9.6,1.6-14.7,2.4-15.1c0.7-0.3,1.6-0.7,2.6-1c1-0.3,1.8-0.7,2.4-1c0.6-0.3,0.9-1,0.9-2l-5.9,2c-0.1-0.2-0.2-0.4-0.2-0.7
		c0-0.7,0.2-1.5,0.5-2.5c0.4-1,0.6-1.7,0.6-2.2c0-0.2-0.3-0.6-0.9-1.2c0.1-0.4,0.2-1.1,0.4-2c2.9,0.1,8.3-0.4,11.3-0.4
		c2.8,0,4.4-0.8,4.8-2.5l-2.6-0.2c-0.7,0-1.8,0.2-3.1,0.6c-1.3,0.4-2.3,0.6-3.1,0.6c0.4-0.3,1.3-0.8,2.6-1.5
		c1.3-0.7,2.5-1.2,3.5-1.7c4.1-2,7.4-3.7,9.8-5.2c2.4-1.5,3.6-2.8,3.6-4c-0.4,0-0.8,0-1.1,0.1c0,0,0,0,0,0c0,0-0.1,0-0.1,0.1
		c-0.7,0.1-1.2,0.2-1.5,0.4c-0.2,0.2-0.4,0.4-0.7,0.7c-1.6,0.5-3.8,0.8-6.6,0.8v1.2c0.4,0.2,1.2,0.2,2.4,0.2c0.9,0,1.8-0.1,2.6-0.4
		c-0.5,0.6-1,1.2-1.5,1.6c-1.2,1.2-3.2,1.9-5.9,2.2c-2.2,0.3-4.1,0.9-5.6,1.6c-1.1,0.5-5.6,2.1-8.5,3.6c0-0.2,0.1-0.4,0.1-0.6
		c0.5-2.4,0.8-4.4,0.8-6.1l7-2v-1c-0.4,0-1.2,0.1-2.2,0.4c-1,0.2-2.1,0.5-3.1,0.6c1-0.7,2.8-1.8,5.4-3.3c2.6-1.6,4.2-2.4,5-2.4
		c0.3,0,0.6,0.1,1,0.4c0.4,0.2,0.6,0.4,0.8,0.4v-1.7c2.1,0,3.9-0.5,5.5-1.4c1.6-0.9,2.6-2.4,3.1-4.6c-3.7,0.8-7.3,1.2-10.8,1.2
		l-4-0.2c0.4-1.2,1.7-2.6,3.7-4.5c2.1-1.8,3.2-2.9,3.5-3.2c0.6,0,1.2,0.1,1.8,0.2c0.6,0.2,1.1,0.2,1.5,0.2v-3.5
		c-2.5,0-4.3,0.1-5.5,0.2l-6.8,0.2v1.2h7v1.2L410.3,29c0.3-3.3,1.1-5.9,2.5-7.9c1.4-2,3.5-3.5,6.3-4.7c-0.1-0.2-0.3-0.4-0.6-0.7
		c-0.2-0.3-0.5-0.5-0.8-0.5c-1.2,0-2.5,1.1-4,3.2l-0.7-1.2c-0.9,0.5-1.5,1.6-1.8,3.2v-6.9c0-0.7,0.6-1,1.8-1c1.3,0,2.1,0.3,2.4,1
		h11.2c0,1.2,0.4,1.7,1.1,1.7l8.6,17.8l1.8,9.7l2.2,2.5l-12.5,4.5c0.4,0.3,0.7,0.7,0.7,1c0,1.3-0.1,2.3-0.3,2.8
		c-0.2,0.4-0.3,0.7-0.4,0.8c4-2,7.1-3.5,9.2-4.6c2.1-1.2,3.3-1.7,3.6-1.7c0.1,0.2,1.3,1.3,3.4,3.3c2.1,2.1,3.2,3.8,3.2,5.3
		c-0.4,0-0.9-0.2-1.4-0.6c-0.5-0.4-1-0.6-1.4-0.6c-2.8,0-5.8,0.9-9.1,2.7c-0.3,0.1-0.5,0.3-0.7,0.4L429.9,56.7z M417.5,70.8
		c0.2-0.8,0.4-1.4,0.7-1.8c0.4-0.5,1-0.8,1.9-1c-0.2,0.1-0.3,0.3-0.3,0.4C419.5,69,418.8,69.8,417.5,70.8z M436.9,66.4
		c0-0.8-0.4-1.4-1.1-1.6c-0.7-0.2-1.1-0.7-1.1-1.4c0-1.3,0.6-2.2,1.6-2.6c1.1-0.4,2.5-0.6,4.3-0.6c0.1,0,0.4,0.2,0.7,0.6
		c0.3,0.4,0.5,0.6,0.7,0.6c0.4,0,1.1-0.4,2.1-1.1c1-0.7,1.7-1.1,2.3-1.1l1.5,0.2c-0.9,1.3-2.6,2.8-5.3,4.5
		C440,65.6,438.1,66.4,436.9,66.4z M441.8,76.8c0-0.7-0.2-1.5-0.6-2.6c-0.4-1.1-0.5-1.9-0.5-2.4c0-1.5,0.7-2.5,2.1-3.1
		c1.4-0.6,3.3-0.9,5.6-1.1c2.2,0,3.7-0.2,4.6-0.7l0.2,0.7c0,1.2-1.8,2.9-5.5,5.2C444,75.2,442.1,76.5,441.8,76.8z M444.4,84
		c0-2.1,1.5-3.8,4.6-5.1c3.1-1.2,6.5-2,10.1-2.4c0,1.7-0.6,2.5-1.8,2.5c-0.4,0-0.7-0.1-0.9-0.2l-7.9,5h2.2c0,0.3-0.6,1.1-1.8,2.2
		c-1.2,1.2-1.9,2.1-2.2,2.7C445.2,87,444.4,85.5,444.4,84z M464.9,85.2c-0.3,0.5-0.7,0.7-1.1,0.7l-5.5,4.2c-0.6,0-1.8,0.6-3.6,1.9
		c-1.8,1.2-3.2,1.9-4.1,1.9c-0.3,0-0.6-0.2-0.9-0.5l-1.8-3.7c1.6-0.3,3.9-1.3,6.8-3c3.2-2,5.9-3,7.9-3l2.4-1l0.2,1
		C465.3,84.2,465.2,84.7,464.9,85.2z M503.1,68.6c0-1.3,1.4-2.8,4.1-4.5c2.7-1.6,4.9-2.6,6.5-3c0.6,0,1.2,0.1,2,0.4
		c0.7,0.2,1.2,0.5,1.5,0.6c-1.2,0.5-3.3,1.6-6.4,3.2c-3.1,1.7-5.6,3.2-7.5,4.7C503.2,70,503.1,69.5,503.1,68.6z M512.4,122.3
		c-0.2-1.2-0.4-2.8-0.5-5c0.8,0,1.8-0.2,1.9,0c0.2,0.4,0.8,0.6,1.6,0.6c0.7-0.2,0.6-1.5,1.5-2c0.8-0.5,2.4-3.1,6.4-5.4l0,0
		c0.5-0.3,0.8-0.7,1-1.2h-0.9c-0.9,0-1.7,0.2-2.3,0.6c0,0,0,0,0,0c-0.1-0.2-3.6,1.9-4.7,3.1c-1.2,1.2-1.8,2.1-1.8,3l-2.8-1.6
		c0-0.1,0-0.2,0-0.4l-0.4-6.2h3.3v-2h-3.3c1-0.3,1.9-0.9,2.7-1.6c0.8-0.7,1.2-1.6,1.2-2.6c0-0.2-0.2-0.2-0.7-0.2
		c-1.5,1.3-2.6,2-3.5,2c-1.2,0-1.8-1-1.8-3c0-1.3,0.4-2.1,1.1-2.5c0.7-0.3,1.8-0.5,3.3-0.5c-0.9-1.3-2.3-2-4.2-2
		c0.1-1,0.7-1.8,1.8-2.5c2.3-1.6,11.3-7,12.3-8.1c1-1.1,1.5-2.5,1.5-4.3c-1,0-2.8,1.6-5.4,4.7c-2.6,3.1-11.1,7-12,8.2
		c0.2-0.2,0.3-0.3,0.5-0.3c-0.2,0.1-0.3,0.2-0.5,0.3c0-1.2-0.1-2.6-0.4-4.2c-0.3-1.6-0.4-3.1-0.4-4.5c0.6-0.5,1.3-0.8,2.1-1
		c0.1,0,0.3-0.1,0.4-0.1c0,0,0,0,0,0c0.9,0,5.7-0.9,7.5-1.3c1.8-0.4,2.8-0.9,3-1.6c-0.1-0.2-0.4-0.3-0.8-0.5c-0.4-0.2-0.7-0.2-1-0.2
		c-1.2,0-6.1,1.1-7.3,1.5l-1.5,0.2c-0.4,0-0.7-0.3-0.9-1c0.7-0.3,1.9-0.8,3.4-1.4c1.5-0.6,3-1.4,4.3-2.4c1.3-1,2.3-2.3,2.9-4
		c-1.5,1-2.8,1.8-4.1,2.5c-1.2,0.7-2.4,1.3-3.4,2c-3.1,1.5-4.9,2.6-5.5,3.2c-1.2-0.7-1.8-2-1.8-4c0-1.2,0.3-1.8,0.9-2l8.6-1.7
		c0.7-0.2,1.1-0.4,1.1-0.7l-0.2-1.2c-1.2,0-2.8,0.2-4.8,0.5c-2.1,0.3-3.6,0.5-4.6,0.5c1.2-0.8,4-2.4,8.4-4.7c5-2.1,7.7-4,8.1-5.4
		c0-1.6-2.3-2.5-7-2.5c-0.4,0-1,0.1-1.8,0.4c-0.7,0.2-1.6,0.4-2.6,0.4c1.2-1.5,3.3-3.8,6.4-6.8c3.1-3.1,5.1-4.7,5.9-4.8
		c0.9,1,1.7,3.8,2.4,8.4c0.7,4.6,1.1,8.3,1.1,11.1c0,0.2-0.9,0.7-2.6,1.5c-1.8,0.8-2.6,1.3-2.6,1.5l0.9,1c-1.3,0.8-2,1.7-2,2.7
		c0.9,0,1.6-0.2,2.2-0.5c0.6-0.3,1.2-0.9,1.9-1.6c0.7-0.7,1.1-1.3,1.4-1.6l1.8,11.6c0.6,5.3,1.1,9.3,1.5,11.9
		c-0.9,0.5-2,0.7-3.3,0.7l1.5,2h1.8c0.3,2,0.6,3.6,0.9,5c0.7,2.8,1.1,5.3,1.1,7.4c0,1.2-0.4,1.9-1.2,2.2c-0.8,0.3-1.3,0.7-1.4,1.2
		c0.1,0,0.3,0.2,0.5,0.6c0.2,0.4,0.3,0.7,0.3,0.9c0,0.5-0.3,1-1,1.4c-0.7,0.4-1,1-1,1.9c0.6-0.2,2.1-1.1,4.6-2.7
		c0.4,0.8,0.7,2.2,0.7,4.2v2c0,1.7-2.3,4.4-7,8.3c-4.7,3.9-8.1,6.2-10.3,6.8c0-0.8-0.1-2-0.4-3.5c-0.3-1.5-0.4-2.7-0.4-3.7
		c7.3,0,11-1.1,11-3.2c-0.6,0-1.1,0.2-1.6,0.5c-0.5,0.3-1,0.5-1.4,0.5l-5.3-0.7v-2.5c-0.6,0.7-1.1,1-1.5,1
		C513.5,124.9,512.7,124,512.4,122.3z M519.2,163c-2.6,0-4-3.5-4-10.7c1.6,0,2.9-0.2,3.8-0.5c0.1,0,0.2-0.1,0.4-0.2
		c0.6-0.2,2.3-0.9,3.3-1.4c0.1-0.1,0.3-0.1,0.4-0.2c0.1-0.1,0.2-0.1,0.2-0.2c0,0,0,0,0,0c0.5-0.4,1.1-0.9,1.8-1.7h-0.9
		c-0.6,0-1.1,0.2-1.6,0.5l0,0c0,0-0.6,0.5-3,0.7h-1.6c0.4-1.3,2-2.6,4.6-4c1.3-0.7,2.3-1.3,3-1.9c0.7-0.6,1-1.3,1-2.1
		c-1.3,0.2-3.6,1.3-6.8,3.5c-2.6,1.7-4.3,2.5-4.8,2.5c-0.3,0-0.7-1.6-1.3-5c0-1,0.7-1.5,2.2-1.5l1.8,0.2c2.5,0,3.8-1.1,4-3.2h-3.5
		c1.3-1.5,3.8-3.7,7.5-6.7c3.7-3,6.1-4.5,7.3-4.5c0.3,0,0.8,0.8,1.4,2.5c0.7,1.7,1.1,3.3,1.2,5c-1.5,0-3.1,0.3-4.8,0.9
		c-1.8,0.6-2.6,1.4-2.6,2.6c0.3,0,0.7,0,1.1,0.1c0.4,0.1,0.8,0.3,1.1,0.6c-0.9,0.7-1.4,1.2-1.5,1.6c-0.1,0.4-0.2,1.2-0.2,2.4
		c0.6-0.8,1.6-1.7,3.1-2.6c1.5-0.9,2.5-1.4,3.1-1.4c0.6,0,1.1,0.6,1.4,1.9c0.4,1.2,0.6,2.4,0.6,3.3c0,0.8-0.5,1.4-1.5,1.7
		c-1,0.3-2.3,0.7-3.7,1c-1.5,0.3-2.4,0.7-2.9,1h6.2c-0.3,0.2-0.7,0.5-0.9,0.7l0,0c0,0,0,0,0,0c-0.4,0.4-0.6,0.8-0.9,1.2
		c-1.1,1.4-2.8,3.6-3.9,4.6c-1.8,1.5-7.4,6.5-7.4,6.5c0.3,0.3,0.6,0.5,0.9,0.5c0.9,0,2.2-0.9,4-2.8c0.8-0.9,1.5-1.6,2-2.1
		c0.6-0.4,2.1-1.5,2.4-1.6c0.4-0.2,4-4.9,4-4.9l0,0c0.1-0.1,0.2-0.2,0.2-0.3c1.1-1.4,2-2.1,2.7-2.1c0.9,2.3,1.6,4.9,2.1,7.8
		c0.5,2.9,0.8,4.9,1,6.1C537.2,162.3,530,163,519.2,163z"/>
</g>
</svg>
